<svg xmlns="http://www.w3.org/2000/svg" width="20" height="20" viewBox="0 0 20 20">
  <g id="Group_3440" data-name="Group 3440" transform="translate(-4.059 -4.059)">
    <path id="Path_4100" data-name="Path 4100" d="M81.353,87.2H73.048A5.854,5.854,0,0,1,67.2,81.353V73.048A5.854,5.854,0,0,1,73.048,67.2h8.305A5.854,5.854,0,0,1,87.2,73.048v8.305A5.854,5.854,0,0,1,81.353,87.2ZM73.048,69.065a3.988,3.988,0,0,0-3.983,3.983v8.305a3.988,3.988,0,0,0,3.983,3.983h8.305a3.988,3.988,0,0,0,3.983-3.983V73.048a3.988,3.988,0,0,0-3.983-3.983Z" transform="translate(-63.142 -63.143)" fill="#fff"/>
    <path id="Path_4101" data-name="Path 4101" d="M335.942,133.064a1.289,1.289,0,1,1-1.289-1.289A1.289,1.289,0,0,1,335.942,133.064Z" transform="translate(-315.277 -124.312)" fill="#fff"/>
    <path id="Path_4102" data-name="Path 4102" d="M163.4,168.4a5,5,0,1,1,5-5A5.008,5.008,0,0,1,163.4,168.4Zm0-8.2a3.2,3.2,0,1,0,3.2,3.2A3.2,3.2,0,0,0,163.4,160.2Z" transform="translate(-149.345 -149.344)" fill="#fff"/>
  </g>
</svg>
