<svg xmlns="http://www.w3.org/2000/svg" width="166.978" height="50.25" viewBox="0 0 166.978 50.25">
  <g id="Group_3427" data-name="Group 3427" transform="translate(-55.781 -164.37)">
    <g id="Group_249" data-name="Group 249" transform="translate(138.455 199.525)">
      <path id="Path_509" data-name="Path 509" d="M117.521,191.955c0-.637-.009-.7-.335-.9l-.108-.064a.167.167,0,0,1,0-.218,7.306,7.306,0,0,0,1.168-.452.12.12,0,0,1,.108.064c-.011.324-.033.866-.033,1.342v3.706c0,.141.011.163.2.163a1.032,1.032,0,0,0,.734-.421l.444-.477c.3-.324.378-.443.378-.5s-.054-.087-.238-.108l-.259-.032a.162.162,0,0,1,0-.271h.248a16.842,16.842,0,0,0,1.719-.087c.077.034.088.218.022.271l-.345.065a1.549,1.549,0,0,0-.681.378c-.421.336-.788.726-.983.909-.129.119-.14.172-.076.259a10.745,10.745,0,0,0,.725.864c.421.477.8.9,1.016,1.1a1.11,1.11,0,0,0,.562.238l.152.02c.076.056.065.238-.022.271-.314-.022-.681-.033-1.027-.033-.432,0-.811.011-1.124.033a.182.182,0,0,1-.022-.271l.2-.033c.161-.022.27-.043.27-.108s-.043-.14-.184-.3l-1.157-1.341a.436.436,0,0,0-.335-.15c-.2,0-.206.033-.206.366v.6c0,.779.022.887.412.94l.259.033a.189.189,0,0,1-.022.271c-.356-.022-.67-.033-1.048-.033s-.714.011-1.038.033a.18.18,0,0,1-.011-.271l.237-.033c.4-.053.41-.161.41-.94Z" transform="translate(-116.818 -190.324)" fill="#fff"/>
      <path id="Path_510" data-name="Path 510" d="M127.649,195.012a2.207,2.207,0,0,1-2.281,2.323,2.136,2.136,0,0,1-2.216-2.225,2.271,2.271,0,0,1,2.3-2.335A2.159,2.159,0,0,1,127.649,195.012Zm-2.324-1.913c-.714,0-1.243.68-1.243,1.869,0,.983.444,2.043,1.4,2.043s1.243-.994,1.243-1.827C126.72,194.265,126.351,193.1,125.325,193.1Z" transform="translate(-114.572 -189.456)" fill="#fff"/>
      <path id="Path_511" data-name="Path 511" d="M130.1,194.121c0-.421,0-.474-.291-.67l-.1-.065a.146.146,0,0,1,.011-.194,5.875,5.875,0,0,0,1.081-.53.126.126,0,0,1,.119.076c-.022.248-.022.41-.022.508a.113.113,0,0,0,.119.118,2.966,2.966,0,0,1,1.513-.55,1.2,1.2,0,0,1,1.265,1.341v1.858c0,.779.02.887.41.94l.238.033a.192.192,0,0,1-.022.271c-.325-.022-.638-.033-1.016-.033s-.714.011-1.005.033a.188.188,0,0,1-.023-.271l.206-.033c.4-.065.41-.161.41-.94V194.4a.936.936,0,0,0-1.016-1.069,1.183,1.183,0,0,0-.92.378.917.917,0,0,0-.161.65v1.653c0,.779.022.875.41.94l.2.033a.192.192,0,0,1-.022.271c-.291-.022-.605-.033-.983-.033s-.714.011-1.017.033a.189.189,0,0,1-.02-.271l.226-.033c.4-.053.41-.161.41-.94Z" transform="translate(-112.35 -189.495)" fill="#fff"/>
      <path id="Path_512" data-name="Path 512" d="M140.5,195.012a2.207,2.207,0,0,1-2.281,2.323A2.136,2.136,0,0,1,136,195.109a2.271,2.271,0,0,1,2.3-2.335A2.16,2.16,0,0,1,140.5,195.012Zm-2.324-1.913c-.714,0-1.243.68-1.243,1.869,0,.983.444,2.043,1.4,2.043s1.243-.994,1.243-1.827C139.571,194.265,139.2,193.1,138.176,193.1Z" transform="translate(-110.016 -189.456)" fill="#fff"/>
      <path id="Path_513" data-name="Path 513" d="M142.886,191.955c0-.637-.009-.7-.335-.9l-.108-.064a.167.167,0,0,1,0-.218,7.3,7.3,0,0,0,1.168-.452.12.12,0,0,1,.108.064c-.011.324-.033.866-.033,1.342V194c0,.1.011.184.043.206a2.457,2.457,0,0,1,1.459-.562,1.261,1.261,0,0,1,1.4,1.394v1.806c0,.779.022.9.41.94l.293.033a.189.189,0,0,1-.022.271c-.39-.022-.7-.033-1.082-.033s-.712.011-1.005.033a.192.192,0,0,1-.022-.271l.217-.033c.4-.065.41-.161.41-.94v-1.547c0-.691-.335-1.155-1.027-1.155a1.289,1.289,0,0,0-.842.293c-.2.161-.228.215-.228.595v1.815c0,.779.022.887.412.94l.226.033c.076.043.054.238-.022.271-.325-.022-.638-.033-1.017-.033s-.712.011-1.059.033a.192.192,0,0,1-.022-.271l.271-.033c.4-.043.41-.161.41-.94Z" transform="translate(-107.834 -190.324)" fill="#fff"/>
      <path id="Path_514" data-name="Path 514" d="M150.957,194.947c.163-.056.184-.152.184-.314l.011-.5c.011-.4-.119-.941-.788-.941-.3,0-.67.15-.692.486-.011.172-.022.3-.108.368a1.174,1.174,0,0,1-.616.206.138.138,0,0,1-.152-.153c0-.561,1.222-1.329,2.011-1.329s1.155.454,1.124,1.264l-.065,1.881c-.022.5.074.941.5.941a.635.635,0,0,0,.27-.065.429.429,0,0,1,.141-.076c.043,0,.076.064.076.141a1.14,1.14,0,0,1-.909.474.863.863,0,0,1-.7-.333c-.043-.066-.108-.153-.172-.153a1.618,1.618,0,0,0-.423.218,1.61,1.61,0,0,1-.779.268,1.113,1.113,0,0,1-.756-.247,1.013,1.013,0,0,1-.336-.757c0-.423.206-.67.9-.92Zm-.669,1.9a1.225,1.225,0,0,0,.658-.268c.131-.131.131-.283.141-.511l.022-.637c0-.118-.042-.14-.108-.14a2.1,2.1,0,0,0-.443.107c-.638.217-.951.379-.951.8A.651.651,0,0,0,150.288,196.848Z" transform="translate(-105.489 -189.456)" fill="#fff"/>
      <path id="Path_515" data-name="Path 515" d="M155.072,194.121c0-.421,0-.474-.291-.67l-.1-.065a.146.146,0,0,1,.011-.194,5.887,5.887,0,0,0,1.082-.53.125.125,0,0,1,.118.076c-.022.248-.022.41-.022.508a.113.113,0,0,0,.121.118,2.966,2.966,0,0,1,1.513-.55,1.2,1.2,0,0,1,1.265,1.341v1.858c0,.779.02.887.41.94l.237.033a.189.189,0,0,1-.022.271c-.324-.022-.637-.033-1.016-.033s-.714.011-1.005.033a.189.189,0,0,1-.022-.271l.2-.033c.4-.065.412-.161.412-.94V194.4a.937.937,0,0,0-1.016-1.069,1.182,1.182,0,0,0-.92.378.911.911,0,0,0-.163.65v1.653c0,.779.022.875.412.94l.2.033a.192.192,0,0,1-.022.271c-.293-.022-.607-.033-.985-.033s-.712.011-1.016.033a.189.189,0,0,1-.022-.271l.226-.033c.4-.053.412-.161.412-.94Z" transform="translate(-103.499 -189.495)" fill="#fff"/>
      <path id="Path_516" data-name="Path 516" d="M163.154,194.947c.161-.056.183-.152.183-.314l.011-.5c.011-.4-.118-.941-.788-.941-.3,0-.67.15-.692.486-.011.172-.022.3-.108.368a1.173,1.173,0,0,1-.616.206.137.137,0,0,1-.15-.153c0-.561,1.222-1.329,2.01-1.329s1.157.454,1.124,1.264l-.065,1.881c-.022.5.076.941.5.941a.63.63,0,0,0,.27-.065.446.446,0,0,1,.142-.076c.042,0,.075.064.075.141a1.137,1.137,0,0,1-.908.474.859.859,0,0,1-.7-.333c-.045-.066-.11-.153-.173-.153a1.639,1.639,0,0,0-.423.218,1.61,1.61,0,0,1-.779.268,1.115,1.115,0,0,1-.756-.247,1.012,1.012,0,0,1-.335-.757c0-.423.2-.67.9-.92Zm-.67,1.9a1.23,1.23,0,0,0,.66-.268c.13-.131.13-.283.14-.511l.022-.637c0-.118-.042-.14-.107-.14a2.1,2.1,0,0,0-.444.107c-.638.217-.951.379-.951.8A.652.652,0,0,0,162.484,196.848Z" transform="translate(-101.165 -189.456)" fill="#fff"/>
    </g>
    <g id="Group_250" data-name="Group 250" transform="translate(116.051 169.21)">
      <path id="Path_517" data-name="Path 517" d="M108.988,187.829c.925,0,5.621-.649,5.774-.649a1.916,1.916,0,0,1,2.04,1.451c0,1.669-5.251,1.823-6.951,1.823-3.057,0-9.574-.555-9.574-5.406,0-1.173.34-1.513.4-1.513.217,0,.433.989.494,1.143.864,2.162,3.737,3.087,5.93,3.087C107.319,187.766,108.678,187.829,108.988,187.829Zm.092-17.267c.37,0,2.1-.061,2.439-.061a3.247,3.247,0,0,1,3.027,2.471c0,.555-.278.555-2.41.71a8.519,8.519,0,0,0-3.891,1.482c-.309.187-.309.157-.432.157-.031,0-.093,0-.093-.064,0-.276,1.7-1.73,1.7-2.1,0-.186-.093-.217-.989-.371-4.016-.741-5.437-2.687-5.437-2.995,0-.093.093-.093.154-.093a9.658,9.658,0,0,1,1.02.309A18.541,18.541,0,0,0,109.08,170.562Z" transform="translate(-100.277 -167.321)" fill="#fff"/>
      <path id="Path_518" data-name="Path 518" d="M130.159,171.351c0,.091.062.215.062.339a23.716,23.716,0,0,1,.307,3.336c0,2.07-.462,4.943-3.18,9.049-2.471,3.768-4.046,4.509-5.281,4.509-2.04,0-3.862-3.18-3.862-6.949a10.881,10.881,0,0,1,3.428-7.876,12.777,12.777,0,0,1,9.853-4.016,10.067,10.067,0,0,1,4.974.989,9.685,9.685,0,0,1,5.375,8.988,11.521,11.521,0,0,1-7.784,10.873,18.976,18.976,0,0,1-5.127,1.142c-.125,0-.309-.031-.309-.215,0-.092.061-.125.833-.432,3.213-1.268,9.915-3.923,9.915-11.613,0-1.2-.123-8.556-8.555-8.556C130.189,170.917,130.159,171.165,130.159,171.351Zm-10.038,9.48c0,2.009.8,4.758,2.687,4.758.9,0,1.636-.371,3.768-3.584a17.669,17.669,0,0,0,3.027-8.988c0-1.852-.125-2.006-.526-2.006C126.145,171.011,120.121,174.994,120.121,180.831Z" transform="translate(-93.921 -167.305)" fill="#fff"/>
      <path id="Path_519" data-name="Path 519" d="M145.855,190.755c0,.68-.31,1.266-1.02,1.266-1.544,0-3.09-3.09-3.09-7.878a23.646,23.646,0,0,1,.8-6.052c.866-3.8.926-3.954.926-4.91a4.371,4.371,0,0,0-.71-2.564,6.248,6.248,0,0,1-.586-1.082c0-.186.37-.247.555-.247,1.73,0,3.274,3.088,3.274,3.645,0,.248-1.359,4.045-1.605,4.818a20.636,20.636,0,0,0-1.112,6.209c0,.183,0,2.16.741,2.16.278,0,.309-.123.866-1.82a15.47,15.47,0,0,1,1.265-3.09c.123,0,.123.215.123.278,0,.989-.864,5.437-.864,6.332C145.421,188.283,145.855,190.321,145.855,190.755Zm12.261-1.73a5.092,5.092,0,0,1-4.6,2.935c-2.07,0-3.862-1.268-3.862-3.09,0-.433,0-3.707,6.332-3.8.772,0,.772-.215.772-2.131,0-.187-.093-3.459-.123-4.324a1.021,1.021,0,0,0-.248-.741,9.929,9.929,0,0,0-1.42-.064c-3.492,0-4.573-2.439-4.573-2.748,0-.092.031-.217.156-.217a5.432,5.432,0,0,1,.833.432,9.211,9.211,0,0,0,3.459.619c1.7,0,1.7,0,1.7-2.04,0-1.945,0-2.811-.586-3.52-.123-.154-.958-.834-.958-1.05,0-.186.4-.526,1.05-.526.618,0,2.687.432,2.687,1.606,0,.215-.03.278-.34.771a1.348,1.348,0,0,0-.184.649c0,.928,1.606.989,1.791.989,1.359.064,2.38.092,2.38,1.391,0,1.451-2.07,2.347-3.213,2.84s-1.143.527-1.143,1.854c0,.679.217,4.169.309,5,.123,1.143.215,1.359.989,1.7,1.513.647,4.756,2.1,4.756,3.924a1.214,1.214,0,0,1-1.112,1.235c-.37,0-.463-.125-1.2-1.052-.9-1.081-2.5-2.377-3.057-2.1C158.487,187.666,158.209,188.81,158.115,189.025Zm-7.228-.4c0,.834.958,1.361,2.039,1.361,1.823,0,3.707-1.483,3.707-2.534,0-.524-.432-.772-2.41-.772C152.463,186.678,150.888,187.727,150.888,188.623Zm7.135-14.61c0,1.174.247,1.174.463,1.174.433,0,1.606-.37,1.606-1.081,0-.557-1.02-.958-1.452-.958a.671.671,0,0,0-.371.123A.936.936,0,0,0,158.023,174.013Z" transform="translate(-85.577 -167.652)" fill="#fff"/>
      <path id="Path_520" data-name="Path 520" d="M169.78,170.815a2.526,2.526,0,0,0-.432-1.36,6.088,6.088,0,0,1-.588-.864c0-.371.649-.647,1.266-.647a2.51,2.51,0,0,1,2.224,1.357c.154.218.463.34,1.391.588.585.153,1.76.493,1.76,1.36,0,1.172-1.73,1.73-4.231,2.471-.278.091-.309.184-.586,1.265-.371,1.544-3.027,11.985-5.869,11.985-.834,0-.956-.557-.956-.866,0-.432.091-.586,1.019-1.915a27.64,27.64,0,0,0,4.261-10.068c0-.279-.215-.31-.679-.34-3.645-.307-3.645-2.471-3.645-2.5,0-.123.031-.37.217-.37.123,0,.215.03.834.4a4.577,4.577,0,0,0,2.377.649,3.821,3.821,0,0,0,1.36-.187A1.467,1.467,0,0,0,169.78,170.815Zm8.9,19.335c-.4,2.686-2.748,3.366-4.355,3.366-2.935,0-4.665-2.039-4.665-3.583,0-2.007,2.194-3.057,4.974-3.057.248,0,1.39.061,1.605.061.279,0,.433-.031.433-.34,0-.462-.123-2.532-.123-2.965,0-3.4.184-5.035,2.779-6.518,1.915-1.111,2.132-1.2,2.132-2.006a2.71,2.71,0,0,0-.866-1.575c-.278-.248-.4-.372-.4-.494,0-.093.093-.154.217-.154a9.749,9.749,0,0,1,1.823.524,3.317,3.317,0,0,1,2.254,3.151,1.468,1.468,0,0,1-1.451,1.608,2.116,2.116,0,0,1-.711-.125c-1.174-.433-1.3-.494-1.669-.494a3.7,3.7,0,0,0-2.254.926,3.48,3.48,0,0,0-.741,2.564c0,.771.307,5.559,1.235,6.208.278.217,1.73.711,2.007.866.649.34,2.439,1.329,2.439,2.471,0,.524-.215,1.081-.833,1.081-.309,0-.494-.092-.958-.493-.834-.742-2.255-1.7-2.687-1.514C178.737,189.717,178.737,189.841,178.675,190.15Zm-4.448-1.762c-.71,0-3.489,0-3.489,1.639,0,.741.926,1.666,2.779,1.666,3,0,3.428-2.346,3.244-2.84C176.607,188.388,174.938,188.388,174.227,188.388Zm-.833-17.667c0-.215-1.081-.772-1.266-.772-.526,0-.742,1.266-.742,1.36a.344.344,0,0,0,.062.186C171.54,171.585,173.394,171.184,173.394,170.721Z" transform="translate(-77.773 -167.943)" fill="#fff"/>
    </g>
    <g id="Group_251" data-name="Group 251" transform="translate(55.782 164.37)">
      <path id="Path_521" data-name="Path 521" d="M75.322,197.6a10.74,10.74,0,0,1-3.667,1.983,13.643,13.643,0,0,1-8.268,0,10.677,10.677,0,0,1-3.664-1.991.31.31,0,0,1,.364-.5h0a13.113,13.113,0,0,0,3.581,1.52,15.435,15.435,0,0,0,7.7,0,13.029,13.029,0,0,0,3.577-1.527h0a.314.314,0,0,1,.368.505Z" transform="translate(-54.423 -152.786)" fill="#fff"/>
      <path id="Path_522" data-name="Path 522" d="M80.409,198.235q-.6.53-1.218,1.05l-1.325.922-1.42.775-1.489.642a18.545,18.545,0,0,1-12.747.06l-1.5-.631-1.434-.763-1.342-.914c-.417-.344-.829-.693-1.235-1.044a.327.327,0,0,1,.4-.517l.027.019q.642.439,1.265.89l1.336.772,1.387.664,1.44.536a19.988,19.988,0,0,0,12.1.058l1.452-.524,1.4-.653,1.352-.763c.421-.3.849-.593,1.284-.886l.018-.011a.2.2,0,0,1,.245.318Z" transform="translate(-55.496 -152.534)" fill="#fff"/>
      <path id="Path_523" data-name="Path 523" d="M79.854,173.978a19.543,19.543,0,0,0-.656-2.747,12.306,12.306,0,0,0-1.149-2.69,8.271,8.271,0,0,0-.9-1.258c-.176-.187-.351-.378-.535-.561s-.386-.354-.592-.52a8.31,8.31,0,0,0-2.878-1.555,6.8,6.8,0,0,0-3.465-.095,7.126,7.126,0,0,0-5,4.651,9,9,0,0,0-.461,3.278,12.377,12.377,0,0,0,.528,3.067c.142.488.32.954.5,1.415a8.856,8.856,0,0,0,.84,1.483,17.039,17.039,0,0,0,1.788,2.2c1.326,1.35,2.714,2.57,4.127,3.753.7.595,1.4,1.174,2.112,1.751q-1.284-.715-2.582-1.414c-1.688-.889-3.377-1.777-5.165-2.533a16.959,16.959,0,0,0-2.85-.958,8.081,8.081,0,0,0-3.27-.087,5.415,5.415,0,0,0-4.459,5.174,6.326,6.326,0,0,0,.884,3.427,8.9,8.9,0,0,0,2.163,2.465,12.693,12.693,0,0,0,1.281.9l.673.39.389.2.385.16a12.454,12.454,0,0,0,2.991.664,39.649,39.649,0,0,0,5.8.149c1.5-.049,2.98-.152,4.464-.287l-1.967.757c-1.054.416-2.106.837-3.141,1.353a9.582,9.582,0,0,0-1.532.925,6.7,6.7,0,0,0-.74.614,4.32,4.32,0,0,0-.673.782,3.143,3.143,0,0,0-.526,2.238,3.112,3.112,0,0,0,1.346,2.066,3.779,3.779,0,0,0,2.15.624,6.018,6.018,0,0,0,1.946-.366c.3-.1.582-.225.864-.343l.41-.194a4.528,4.528,0,0,0,.442-.232,7.607,7.607,0,0,0,1.407-1.154,27.965,27.965,0,0,0,3.2-4.076.168.168,0,0,0,.026-.121.249.249,0,0,0-.065-.142.229.229,0,0,0-.167-.069.267.267,0,0,0-.081.011.181.181,0,0,0-.072.042q-.549.671-1.123,1.314a20.727,20.727,0,0,1-2.37,2.324,6.616,6.616,0,0,1-1.306.851,2.4,2.4,0,0,1-.326.123l-.385.088a5.029,5.029,0,0,1-.768.1,3.516,3.516,0,0,1-2.41-.675,1.888,1.888,0,0,1-.5-.683,2.03,2.03,0,0,1-.171-1.067,2.6,2.6,0,0,1,.563-1.321,5.872,5.872,0,0,1,1.22-1.027,30.154,30.154,0,0,1,6.046-2.867v0a.246.246,0,0,0,.165-.229.249.249,0,0,0-.249-.247h-.005a53.035,53.035,0,0,1-11.206-.909,11.8,11.8,0,0,1-2.5-.8l-.261-.137-.232-.149c-.165-.119-.343-.265-.513-.4a10.521,10.521,0,0,1-.939-.875,5.588,5.588,0,0,1-1.7-4.051,3.444,3.444,0,0,1,.645-1.791,4.047,4.047,0,0,1,1.585-1.337,4.935,4.935,0,0,1,2.366-.461,10.846,10.846,0,0,1,2.625.562,52.477,52.477,0,0,1,5.278,1.992c1.741.74,3.446,1.639,5.14,2.483h.005a.269.269,0,0,0,.271-.455l0,0a49.188,49.188,0,0,1-3.86-3.841,40.846,40.846,0,0,1-3.351-4.225,16.057,16.057,0,0,1-1.289-2.211,4.953,4.953,0,0,1-.371-1.052c-.091-.409-.177-.814-.228-1.219a7.872,7.872,0,0,1,.512-4.422,4.862,4.862,0,0,1,2.649-2.607,5.061,5.061,0,0,1,1.948-.371,4.923,4.923,0,0,1,2.125.555c.176.083.33.2.5.3l.478.355a6.442,6.442,0,0,1,.842.844,10.692,10.692,0,0,1,1.361,2.156,18.6,18.6,0,0,1,1.536,5.088l0,.018a.37.37,0,0,0,.735-.083A26.7,26.7,0,0,0,79.854,173.978Z" transform="translate(-55.782 -164.37)" fill="#fff"/>
      <path id="Path_524" data-name="Path 524" d="M108.552,206.218c-.2-.079-1.529-.349-1.743-.4-1.042-.255-1.638-.375-2.938-.761a31.332,31.332,0,0,1-4.261-1.563,23.808,23.808,0,0,1-3.152-1.67c-.256-.172-.639-.436-.875-.6-.2-.135-.875-.577-.875-.577-1.371-.956-1.952-1.376-3.285-2.384-.974-.737-1.128-.937-2.064-1.723-.125-.106-1.1-1.036-1.1-1.036l-.146-.152.08-.015c.679-.135,1.382-.263,1.964-.39a25.02,25.02,0,0,0,4.724-1.54,9.616,9.616,0,0,0,3.78-2.591,5.834,5.834,0,0,0,1.292-4.93,5.169,5.169,0,0,0-2.755-3.73,6.148,6.148,0,0,0-2.406-.668,7.111,7.111,0,0,0-1.326.009c-.213.018-.619.009-.623.232,0,.18.232.206.341.229a13.824,13.824,0,0,1,1.749.372,3.991,3.991,0,0,1,2.534,4.693,7.088,7.088,0,0,1-2.693,4.024,16.7,16.7,0,0,1-6.286,3.289c-.184.051-.619.129-1.151.213-.712-.676-1.33-1.3-1.987-1.872a16.792,16.792,0,0,0-1.7-1.418c2.477-3.225,4.57-5.957,4.733-6.159.679-.841,1.323-1.711,1.984-2.567a20.513,20.513,0,0,0,3.134-4.962,13.724,13.724,0,0,0,.614-1.842,9.907,9.907,0,0,0,.24-1.941,7.805,7.805,0,0,0-.133-1.825,6.944,6.944,0,0,0-1.815-3.6,6.769,6.769,0,0,0-6.61-1.952,6.665,6.665,0,0,0-3.542,2.051,8.88,8.88,0,0,0-2.246,4.512c-.106.566-.209,1.019-.268,1.59-.065.631-.142,1.5-.135,1.68a.276.276,0,0,0,.528.121c.1-.274.145-.462.145-.462a13.19,13.19,0,0,1,1.6-3.35,7.158,7.158,0,0,1,3.354-2.639,5.448,5.448,0,0,1,2.328-.223,4.262,4.262,0,0,1,3.216,1.907,5.847,5.847,0,0,1,.637,4.3,11.357,11.357,0,0,1-1.539,3.829,101.735,101.735,0,0,1-7.386,10.928c-.3-.114-.6-.21-.786-.265a6.142,6.142,0,0,0-1.892-.154,6.221,6.221,0,0,0-2.781.851,2.57,2.57,0,0,0-.6,3.912,4.772,4.772,0,0,0,.612.547,3.9,3.9,0,0,0,.977.44c.107.027.219.051.335.075-.947,1.224-1.833,2.37-2.6,3.39a27.673,27.673,0,0,1-3.312,3.5,6.658,6.658,0,0,1-6.08,1.214,4.554,4.554,0,0,1-3.412-2.831,4.007,4.007,0,0,1-.091-2.533,3.694,3.694,0,0,1,1.223-1.831c.157-.127.307-.261.489-.424.081-.072.14-.092.079-.172s-.209-.02-.333.024a5.675,5.675,0,0,0-3.617,3.533,3.636,3.636,0,0,0,.045,2.54,5.609,5.609,0,0,0,2.805,3.022,7.611,7.611,0,0,0,4.845.626,11.172,11.172,0,0,0,6.808-3.984c.5-.584,2.418-3.054,4.645-5.941.257.005.543.005.875,0a44.891,44.891,0,0,0,5.5-.53l.192.192a47.167,47.167,0,0,0,4.631,3.69c.891.623,1.445,1.024,2.351,1.619.014.014.37.24.494.326.378.264.738.467,1.1.723.65.4,1.193.718,1.861,1.092a22.417,22.417,0,0,0,6.015,2.366c1.723.447,3.564.769,5.31,1.115a.565.565,0,0,0,.443-.051.321.321,0,0,0,.14-.26A.275.275,0,0,0,108.552,206.218Zm-30.112-11.3a2.449,2.449,0,0,1-1.222-.943,1.436,1.436,0,0,1,.065-1.56c.572-.769,2.055-.79,2.939-.757a5.245,5.245,0,0,1,1.313.275c-.818,1.077-1.628,2.132-2.4,3.138A3.771,3.771,0,0,1,78.44,194.919Zm6.862-.07c-1.143.156-3.509.31-4.659.324.687-.89,1.387-1.8,2.075-2.7a5.887,5.887,0,0,1,.532.356c.7.53,1.3,1.233,2.043,1.9l.1.1Z" transform="translate(-54.111 -163.709)" fill="#fff"/>
    </g>
  </g>
</svg>
