<svg id="Group_248" data-name="Group 248" xmlns="http://www.w3.org/2000/svg" width="183.145" height="54.941" viewBox="0 0 183.145 54.941">
  <g id="Group_244" data-name="Group 244" transform="translate(0)">
    <g id="Group_241" data-name="Group 241">
      <path id="Path_469" data-name="Path 469" d="M81.713,557.808c.23-.491.622-1.161,1.278-1.3a1.667,1.667,0,0,1,1.617.384,2.187,2.187,0,0,1,.4,2.148c-.29.774-.8.939-1.583.939-.392,0-.727-.319-.876-.266a9.975,9.975,0,0,1,.708,2.1,4.318,4.318,0,0,1,2.582-.914,3.845,3.845,0,0,1,3.295,2.059c-.113-2.286.846-2.859,1.43-3.208,1.262-.306,2.237.572,2.9,1.549.057.139.215.429.215.429.373-.373.237-1.025.582-1.63.841-1.821,2.592-3.577,4.562-3.441a2.923,2.923,0,0,1,2.38,1.03,4.253,4.253,0,0,1,0,4.98c-.52.633-1.035,1.435-1.55,2.041a5.429,5.429,0,0,1,1.865.828c.774.718.573,1.691.316,2.582-1.636,2.232-4.547,1.017-6.7.787l-.126.13c.659,1.03-.232,2.171-.718,2.806a6.642,6.642,0,0,1-3.094,1.839l-.115.113c.708.321,1.262.287,1.861.515l3.716,1.7c.473-.248.9.134,1.131-.352-.6-1.806-2.979-.206-3.1-2.18a.962.962,0,0,1,1.547-.4l.228.319c.518-.371-.258-.977.288-1.345.431-.06.831-.379,1.259-.117.23.371.483.995.2,1.343-.771.544.146,1.178,0,1.866.491-.4,1.061-1.09.833-1.748-.458-.371-.138-.891.087-1.265.283-.369.828-.168,1.144,0a1.446,1.446,0,0,1,.316,1.147c-.232.488-1.034.407-1.034.407-.342.714-.943,1.288-1.346,1.976a2.24,2.24,0,0,0,1.949-.318c.175-.517.058-1.234.718-1.43a.88.88,0,0,1,1.2.8,1.009,1.009,0,0,1-.774,1.035,1.812,1.812,0,0,1-.94-.149c-.71-.023-1.079.505-1.839.466.488.68,1.375.428,2.064.627.232-.345.774-.716,1.234-.431.514.232.343.944.084,1.259a.741.741,0,0,1-.8.251,1,1,0,0,1-.523-.689c-.512-.437-1.861-.1-2.483-1.017a.514.514,0,0,0-.517.2c2.577,1.838,5.355,3.987,8.77,3.724a3.567,3.567,0,0,0,.627-3.094l-.118-.458a4.051,4.051,0,0,0-.711-1.087c-.514-.512-1.191.149-1.949-.321a1.309,1.309,0,0,1-.632-1.11,1.4,1.4,0,0,1,1.048-1.288,1.132,1.132,0,0,1,.914.227,1.619,1.619,0,0,1,.619,1.858,3.951,3.951,0,0,1,1.231,4.042c.688.2.86-.8,1.147-1.234a9.536,9.536,0,0,0,.319-3.833c-.724.055-1.064-.376-1.466-.918-.138-.831-.028-1.665.833-1.866a1.423,1.423,0,0,1,1.746.946,1.853,1.853,0,0,1-.314,1.432l-.4.318a7.658,7.658,0,0,1-1.435,5.759c.258.316.716-.087,1.035-.288,1.633-1.575,3.148-3.149,3.18-5.381-.69-.431-1.348-1.179-.922-2.065a1.739,1.739,0,0,1,1.868-.719,1.49,1.49,0,0,1,.8,1.866c-.141.773-.862.732-1.437.985,0,1.954-.807,3.311-2.624,4.866a3.723,3.723,0,0,0-.666.737,7.864,7.864,0,0,0,5.242-3.381,1.531,1.531,0,0,1-.2-1.78c.374-.371.919-1,1.55-.6a1.95,1.95,0,0,1,.944,1.03,1.443,1.443,0,0,1-1.03,1.544c-.894-.371-1.665,1.383-2.811,1.952a19.807,19.807,0,0,1-5.24,2.064v.115a11.24,11.24,0,0,0,7.419-1.461c-.057-.487-.232-1.322.4-1.746a1.663,1.663,0,0,1,1.262-.4,1.631,1.631,0,0,1,.8,2.261,1.156,1.156,0,0,1-1.432.517,7.193,7.193,0,0,1-.718-.4,13.636,13.636,0,0,1-7.421,1.638c1.662,1.288,4.071,1.346,6.274,1.549.243-.622.175-1.123.716-1.351a1.17,1.17,0,0,1,1.693.716c.13.81.055,1.291-.661,1.665a1.324,1.324,0,0,1-1.67-.711,15.693,15.693,0,0,1-6.983-1.555,10.119,10.119,0,0,0,3.925,3.3,2.823,2.823,0,0,1,2.065-.2c.46.458.747.975.4,1.547a1.744,1.744,0,0,1-1.863.6,1.7,1.7,0,0,1-.8-1.746,8.517,8.517,0,0,1-4.238-4.011,15.251,15.251,0,0,1-5.158-1.147c-.342.488.062.773.316,1.234.168.115.258.428.514.313l.227.015a4.575,4.575,0,0,1,1.207.1,1.042,1.042,0,0,1,1.233-.428c.428.373,1.03.946.517,1.547a2.144,2.144,0,0,1-1.234.23l-.718-1.035c-.428.172-.831-.4-1.144.088.57.573.774,1.868,1.978,1.547.348-.092.4.343.6.52a1.288,1.288,0,0,1-.718,1.541c-.748.552-1.349-1.3-1.549,0-.087.588-.745.552-1.23.52a1.112,1.112,0,0,1-.4-1.635,2.568,2.568,0,0,1,.917-.426,3.39,3.39,0,0,0-.316-1.753c-.254,1.064-.987,1.464-1.23,2.7a1.427,1.427,0,0,1-1.147.285c-.515-.431-.745-1-.287-1.549.658-.2.948-.458,1.547-.2.343-.486.972-1.2.6-1.746-.653.889-1.633.458-2.461,1.147-.659.17-1.033-.431-1.147-.948a1.572,1.572,0,0,1,.517-.917,1.082,1.082,0,0,1,1.231.6v.512c.867.113,1.231-.573,1.775-1.029.172-.779-.747-1.375-1.147-2.033-4.238-2.895-9.857-6.25-15.043-3.1-3.067,1.808-3.612,5.446-3.1,8.741a4.293,4.293,0,0,0,.408,1.025c1.319,3.23,5.461,6.209,7.905,7.23a6.833,6.833,0,0,0,1.9.429c.912.061.857.164-.105.264a10.815,10.815,0,0,1-7.243-2.756c1.149,3.779.637,10.052.262,12.138-.143.844-.235,1.126-.661,1.5l.06-.737a22.552,22.552,0,0,0-3.36-15.482,5.32,5.32,0,0,0,.089,2.289,26.26,26.26,0,0,0,2.176,6.078h-.2a19.217,19.217,0,0,1-4.124-9.4c-1.461,1.435-2.895,3.378-2.581,5.589-.057.06-.112.139-.2.086a10.17,10.17,0,0,1,.421-4.181c-.063-.628-1.469-.484-2.6-.628a10.217,10.217,0,0,0-4.711,1.066,1.343,1.343,0,0,1-.935-.228,1.777,1.777,0,0,1-.684-.776c.047-.418.249-.609.185-1.058A.909.909,0,0,1,67,585.423c-.348,0-.515-.136-.642-.651.152-.261.828-.854-.619-1.691a1.018,1.018,0,0,1-.6-1.079c1.32-.92,2.289-1.344,2.564-2.461-.607-.458-.9-.776-.9-1.435,0-.287.564,1.066,1.127.794a6.147,6.147,0,0,0-.107-2.342c-1.871.839-2.956-1.356-2.89-2.1.671.515.763,1.385,1.855,1.552l.595-.246c-.46-.454-2.245-1.555-2.4-3.557a12.586,12.586,0,0,1,.053-1.448,4.577,4.577,0,0,1,2.551-3.554,2.758,2.758,0,0,1,2.577,0l.206-.228a7.347,7.347,0,0,1-1.434-7.422,7.552,7.552,0,0,1,6.274-5.044A8.227,8.227,0,0,1,81.713,557.808Zm-5.558,1.66a1.923,1.923,0,0,0,1.487-.774,2.253,2.253,0,0,0-2.234-3.585c-1.319.4-1.231,1.635-1.633,2.7C73.975,558.95,75.525,559.468,76.155,559.468Zm-1.978-4.045a4,4,0,0,0-2.547,1.272,2.156,2.156,0,0,1,.91.271C74.034,558.462,73.087,555.65,74.177,555.423Zm-5.475,19.6c3.583.978,5.328-3.318,8.77-2.66a3.046,3.046,0,0,1,1.86,1.831c-.572-4.439,3.471-7.648,3.1-12.149a6.935,6.935,0,0,0-4.324-6.188,3.552,3.552,0,0,1,.4,2.265,5.164,5.164,0,0,1-1.751,1.949,4.761,4.761,0,0,1,2.495,3.209c.126,1.821-.228,3.671-1.978,4.845a6.408,6.408,0,0,1-4.725.628l.285.4a2.251,2.251,0,0,1-.285,2.381,1.889,1.889,0,0,1-2.294.829c-.316-.2-.771-.541-.8-.944.458-.432.539.352.954.46a1.228,1.228,0,0,0,1.623-.662,2.818,2.818,0,0,0-.314-2.694c-1.519-1.289-3.718-.1-4.641.6a3.419,3.419,0,0,0-.834,3.64C66.494,574.022,67.671,574.574,68.7,575.021Zm15.7-15.87a1.528,1.528,0,0,0,.2-1.665c-.241-.676-1.55-.914-1.865-.2a1.441,1.441,0,0,0,0,1.348A1.218,1.218,0,0,0,84.405,559.151Zm-13.41.6c.486.458,1.176.2,1.631.117a1.722,1.722,0,0,0,.518-1.751,1.666,1.666,0,0,0-1.635-.945,1.534,1.534,0,0,0-.946.744A1.631,1.631,0,0,0,71,559.753Zm29.282,3.318a5.006,5.006,0,0,0,.721-4.234,2.809,2.809,0,0,0-2.579-1.662c-1.861.028-3.2,1.9-3.69,3.331a18.31,18.31,0,0,1-3.646,7.416C94.523,567.088,97.956,566.052,100.277,563.071Zm-28.767-2.483a2.378,2.378,0,0,1-1.547-1.95c-1.059,2.064-1.348,5.1,0,7.1C69.416,563.936,70.278,562.013,71.511,560.588Zm2.061-.834,1.119-.089-1.034-.828C73.8,559.212,73.2,559.5,73.571,559.753Zm-3.2,5.587a4.829,4.829,0,0,0,1.9,2.464,6.233,6.233,0,0,0,2.736.518,4.11,4.11,0,0,0,3.412-2.464,4.7,4.7,0,0,0-.313-3.732c-1.034-2.119-3.727-2.4-5.56-1.74A4.632,4.632,0,0,0,70.367,565.34Zm20.115-2.491a1.785,1.785,0,0,1,2.266-.4c-.031-.232.083-.543-.117-.714-.347-.891-1.856-1.372-2.43-.6a3.916,3.916,0,0,0-.437,3.058ZM83.461,572.88c.688-.776,1.445-1.243,2.179-1.981a9.217,9.217,0,0,0,2.845-3.175c.577-1.343,1.194-3.3-.18-4.558a2.651,2.651,0,0,0-2.464-1.038C80.794,563.505,84.264,569.3,83.461,572.88Zm7.934-9.919c-2,1.375-1.087,4.3-2.777,5.994,1.89-1.38,3.9-3.127,4.013-5.59A.958.958,0,0,0,91.4,562.961Zm7.225,2.465a19.631,19.631,0,0,1-5.76,2.495c2.036.572,4.469,1.461,6.907.829.873-.3,1.6-.975,1.231-2.065A1.951,1.951,0,0,0,98.62,565.426Zm-16.593,1.979c-2.061,2.892-3.037,6.732-1.549,10.2h.089a2.91,2.91,0,0,0,.8-1.107C82.682,573.526,83.43,570.385,82.027,567.406Zm6.907,2.892c-1.092,1.348-1.8,2.927-3.094,4.124,1.317-1.115,3.953-.369,5.357-1.456,1.063-.888,2.608-1.8,2.064-3.415C92.03,568.263,90.052,569.241,88.935,570.3Zm-.518-.11c-.455.141-1.085.486-1.659.711a10.67,10.67,0,0,0-4.845,6.193,19.748,19.748,0,0,1,3.8-3.345C86.67,572.936,87.443,571.214,88.416,570.187Zm23.013,1.942c.285.4.285,1.1,1.032.836a.834.834,0,0,0,.716-1.121C112.921,570.958,111.37,571.187,111.429,572.129Zm-2.895-.713a1.1,1.1,0,0,0-.629,1.233,1.6,1.6,0,0,0,1.145.627c.488-.17.572-.654.515-1.147A.932.932,0,0,0,108.534,571.417Zm-10.518,1.147a.784.784,0,0,0-.828-.313c-.347.136-.23.714-.113.824a.545.545,0,0,0,.828,0A.387.387,0,0,0,98.016,572.564Zm2.064.763c.4-.4-.125-1.144-.552-1a.68.68,0,0,0-.361.747C99.328,573.348,99.8,573.61,100.08,573.327Zm-23.946-.144a1.838,1.838,0,0,0-.927,2.359,1.634,1.634,0,0,0,2.062.829,2.016,2.016,0,0,0,1.032-1.949C78,573.594,77.138,572.719,76.134,573.182Zm19.19.212c-.23.314-.086.881.4.8a.653.653,0,0,0,.316-.713C95.926,573.165,95.494,573.252,95.323,573.395Zm8.819.6c.083.688.722.716,1.183.716.342-.084.46-.433.515-.716C105.868,573.051,104.022,572.954,104.142,573.992Zm-7.471-.513c-.69,1.1.719.975,1.119,1.542v-.6C97.761,573.766,97.126,573.683,96.671,573.479Zm18.885,2.18c.2-.206.541-.517.4-.951a.767.767,0,0,0-1.032-.6c-.327.1-.458.488-.518.829A.909.909,0,0,0,115.556,575.659Zm-14.205-.254a.67.67,0,0,0,.309-.58.46.46,0,0,0-.549-.514c-.515.11-.685.959-.431,1.03A.894.894,0,0,0,101.351,575.4Zm.45,1.369a.428.428,0,0,0-.577-.254c-.433.172-.254.74-.024.878A.468.468,0,0,0,101.8,576.774Zm15.3,1.26c-.258-.483-.515-.969-1.262-.711a.974.974,0,0,0-.4,1c.086.515.6.661,1.034.742A.844.844,0,0,0,117.1,578.034Zm-19.086,3.5a.439.439,0,0,0,.517.313c.343.087.4-.373.4-.629C98.707,580.587,97.872,581.015,98.016,581.533Zm6.394-.518a.394.394,0,0,0-.316.518c.028.457.7.437.831.313.113-.115.254-.23.2-.429A.6.6,0,0,0,104.41,581.015Zm10.4,1.236c.031.284.232.4.517.4.632.031.841-.509.559-1.154C115.407,581.021,114.665,581.559,114.808,582.251Zm-12.376,1.431c.17.253.6.373.428.747h.084v-.518l.026-.107c.564-.688-.368-1.439-.825-2.072A4.057,4.057,0,0,1,102.432,583.681Zm-3.1.113c.112.259.46.339.744.4.261-.112.2-.369.2-.6C100.11,583.08,99.163,583.189,99.336,583.794Zm4.128-.113a1.529,1.529,0,0,0,.112.63c.316.319,1.174.4,1.147-.318A.7.7,0,0,0,103.464,583.681Zm-2.064.63c0,.374,0,.831.431.919.444-.217.829-.259.6-.919C102.174,583.934,101.628,584.11,101.4,584.311Zm10.542.2c-.313.12-.713.514-.426.831a.968.968,0,0,0,1.032.512c.484,0,.572-.512.512-.91C112.921,584.483,112.375,584.51,111.942,584.51Zm-33.2-8.7a2.637,2.637,0,0,1-2.009,1.3,2.952,2.952,0,0,1-2.117-1.179,3.14,3.14,0,0,1,.113-2.383c-1.946,1.147-3.865,2.892-6.188,2.467-.745,1.058.543,1.947.113,3.008a4.91,4.91,0,0,1-2.692,2.867c-.254.6.447.972.782,1.26.57.454.162,1.144.049,1.633.228.426.659.371,1.03.513.087.4-.4.314-.517.632l.206.2c.17-.032.339-.377.512-.115l.113,1.545c.2.63.833.689,1.434.63.975-.774,2.38-.718,3.612-1.144,2.49-.466,4.4-1.409,5.069-2.82,1.4-2.438,2.381-6.582.718-8.816Z" transform="translate(-64.929 -554.508)" fill="#569b1c"/>
    </g>
    <g id="Group_243" data-name="Group 243" transform="translate(2.558 48.807)">
      <g id="Group_242" data-name="Group 242">
        <path id="Path_470" data-name="Path 470" d="M71.488,586.783c-.109-.215-.22-.421-.34-.625a2.643,2.643,0,0,0-.415-.531,1.879,1.879,0,0,0-.541-.381,1.7,1.7,0,0,0-.716-.143,1.561,1.561,0,0,0-.852.236,2.163,2.163,0,0,0-.635.609,2.913,2.913,0,0,0-.4.847,3.211,3.211,0,0,0-.141.941,3.449,3.449,0,0,0,.141,1,2.5,2.5,0,0,0,.4.825,2.01,2.01,0,0,0,.635.564,1.727,1.727,0,0,0,.852.206,4.245,4.245,0,0,0,.787-.076,1.921,1.921,0,0,0,.723-.324v-1.082c0-.381-.292-.582-.867-.595v-.1c.214,0,.408.011.588.018s.381.013.606.013c.2,0,.411,0,.619-.01s.415-.015.62-.021v.1a2.138,2.138,0,0,0-.326.044.637.637,0,0,0-.254.105.588.588,0,0,0-.172.2.814.814,0,0,0-.062.334v1.176q-.581.19-1.144.353a3.954,3.954,0,0,1-1.093.164,3.4,3.4,0,0,1-1.1-.186,2.779,2.779,0,0,1-.961-.564,2.672,2.672,0,0,1-.677-.9,2.812,2.812,0,0,1-.256-1.244,2.571,2.571,0,0,1,.256-1.144,2.925,2.925,0,0,1,.677-.918,3.307,3.307,0,0,1,.961-.607,2.832,2.832,0,0,1,1.1-.22,5.5,5.5,0,0,1,.617.027c.185.021.355.044.505.075s.288.066.41.1l.352.094a3.33,3.33,0,0,0,.023.352c.015.149.032.3.053.463s.045.314.066.46.044.269.06.36Z" transform="translate(-66.508 -584.503)" fill="#569b1c"/>
        <path id="Path_471" data-name="Path 471" d="M70.168,589.53a1.2,1.2,0,0,0,.434-.136.39.39,0,0,0,.151-.365v-1.944a.3.3,0,0,0-.168-.316,1.39,1.39,0,0,0-.4-.058v-.1l1.223-.183v.475a2.363,2.363,0,0,0,.23-.175,2.734,2.734,0,0,1,.279-.212,1.7,1.7,0,0,1,.293-.178.681.681,0,0,1,.3-.078.632.632,0,0,1,.491.178.785.785,0,0,1,.178.5l-.669.353c.011-.037.024-.079.034-.123a.774.774,0,0,0,.013-.165.33.33,0,0,0-.079-.22.282.282,0,0,0-.227-.1.482.482,0,0,0-.235.06,1.156,1.156,0,0,0-.228.144,1.862,1.862,0,0,0-.2.188c-.063.068-.123.125-.173.181v1.775a.384.384,0,0,0,.159.365,1.347,1.347,0,0,0,.478.136v.1c-.191-.008-.377-.018-.567-.023s-.377-.011-.564-.011c-.131,0-.253,0-.373.011s-.245.014-.373.023Z" transform="translate(-64.239 -583.63)" fill="#569b1c"/>
        <path id="Path_472" data-name="Path 472" d="M72.773,587.788a1.985,1.985,0,0,0,.115.723,1.4,1.4,0,0,0,.285.457,1.1,1.1,0,0,0,.368.233,1.321,1.321,0,0,0,.366.066,1.618,1.618,0,0,0,.635-.117,1.508,1.508,0,0,0,.528-.356l.143.136a2.783,2.783,0,0,1-.7.564,1.822,1.822,0,0,1-.863.19,1.466,1.466,0,0,1-.646-.138,1.6,1.6,0,0,1-.486-.381,1.7,1.7,0,0,1-.306-.535,1.937,1.937,0,0,1-.107-.625,1.873,1.873,0,0,1,.107-.617,1.666,1.666,0,0,1,.306-.538A1.609,1.609,0,0,1,73,586.47a1.464,1.464,0,0,1,.646-.133,1.517,1.517,0,0,1,1.063.357,1.677,1.677,0,0,1,.5,1.095Zm1.635-.249a3.233,3.233,0,0,0-.066-.406.824.824,0,0,0-.131-.3.625.625,0,0,0-.243-.185,1.065,1.065,0,0,0-.387-.062.621.621,0,0,0-.326.091A.859.859,0,0,0,73,586.9a1.186,1.186,0,0,0-.159.313,1.1,1.1,0,0,0-.055.33Z" transform="translate(-63.041 -583.583)" fill="#569b1c"/>
        <path id="Path_473" data-name="Path 473" d="M74.916,587.788a1.988,1.988,0,0,0,.113.723,1.367,1.367,0,0,0,.283.457,1.146,1.146,0,0,0,.371.233,1.332,1.332,0,0,0,.368.066,1.632,1.632,0,0,0,.633-.117,1.544,1.544,0,0,0,.53-.356l.143.136a2.823,2.823,0,0,1-.706.564,1.8,1.8,0,0,1-.862.19,1.466,1.466,0,0,1-.646-.138,1.57,1.57,0,0,1-.483-.381,1.719,1.719,0,0,1-.313-.535,2.025,2.025,0,0,1-.1-.625,1.957,1.957,0,0,1,.1-.617,1.682,1.682,0,0,1,.313-.538,1.575,1.575,0,0,1,.483-.381,1.464,1.464,0,0,1,.646-.133,1.523,1.523,0,0,1,1.063.357,1.678,1.678,0,0,1,.5,1.095Zm1.636-.249a3.958,3.958,0,0,0-.066-.406.827.827,0,0,0-.134-.3.592.592,0,0,0-.243-.185,1.044,1.044,0,0,0-.386-.062.6.6,0,0,0-.322.091.784.784,0,0,0-.251.222,1.105,1.105,0,0,0-.162.313,1.051,1.051,0,0,0-.053.33Z" transform="translate(-61.712 -583.583)" fill="#569b1c"/>
        <path id="Path_474" data-name="Path 474" d="M76.344,586.565l1.225-.183v.442a3.606,3.606,0,0,1,.517-.337,1.193,1.193,0,0,1,.564-.151,1.582,1.582,0,0,1,.447.055.988.988,0,0,1,.379.191.9.9,0,0,1,.269.358,1.371,1.371,0,0,1,.1.562v1.479a.387.387,0,0,0,.151.365,1.189,1.189,0,0,0,.436.136v.1c-.164-.008-.335-.018-.52-.022s-.374-.011-.562-.011c-.128,0-.253,0-.374.011s-.235.014-.347.022v-.1a1.1,1.1,0,0,0,.413-.136.393.393,0,0,0,.147-.365v-1.349a1.092,1.092,0,0,0-.18-.666.685.685,0,0,0-.582-.233,1.006,1.006,0,0,0-.3.041,1.336,1.336,0,0,0-.275.115.946.946,0,0,0-.212.156.23.23,0,0,0-.078.162v1.775a.382.382,0,0,0,.156.365,1.355,1.355,0,0,0,.478.136v.1c-.191-.008-.377-.018-.565-.022s-.376-.011-.565-.011c-.128,0-.254,0-.374.011s-.246.014-.369.022v-.1a1.2,1.2,0,0,0,.433-.136.39.39,0,0,0,.151-.365v-1.944a.3.3,0,0,0-.172-.316,1.31,1.31,0,0,0-.4-.058Z" transform="translate(-60.42 -583.583)" fill="#569b1c"/>
        <path id="Path_475" data-name="Path 475" d="M80.291,587.744a3.165,3.165,0,0,1,.224-1.215,2.675,2.675,0,0,1,.606-.907,2.473,2.473,0,0,1,.9-.572,3.066,3.066,0,0,1,1.093-.2,3.1,3.1,0,0,1,1.1.2,2.488,2.488,0,0,1,.894.572,2.679,2.679,0,0,1,.607.907,3.39,3.39,0,0,1,0,2.43,2.7,2.7,0,0,1-.607.91,2.631,2.631,0,0,1-.894.573,3.1,3.1,0,0,1-1.1.194,3.068,3.068,0,0,1-1.093-.194,2.613,2.613,0,0,1-.9-.573,2.691,2.691,0,0,1-.606-.91A3.154,3.154,0,0,1,80.291,587.744Zm.808,0a3.433,3.433,0,0,0,.138.982,2.562,2.562,0,0,0,.4.824,1.97,1.97,0,0,0,.635.573,1.8,1.8,0,0,0,1.69,0,1.965,1.965,0,0,0,.633-.573,2.534,2.534,0,0,0,.4-.824,3.49,3.49,0,0,0,.136-.982,3.541,3.541,0,0,0-.136-.983,2.476,2.476,0,0,0-.4-.82,1.982,1.982,0,0,0-.633-.573,1.776,1.776,0,0,0-1.69,0,1.987,1.987,0,0,0-.635.573,2.5,2.5,0,0,0-.4.82A3.483,3.483,0,0,0,81.1,587.744Z" transform="translate(-57.964 -584.503)" fill="#569b1c"/>
        <path id="Path_476" data-name="Path 476" d="M83.886,590.537a.788.788,0,0,0,.34-.068.441.441,0,0,0,.185-.167.64.64,0,0,0,.076-.258c.008-.1.011-.215.011-.345v-1.889h-.41l.052-.251H84.5v-.9a2.887,2.887,0,0,1,.081-.635,2.3,2.3,0,0,1,.254-.663,1.7,1.7,0,0,1,.462-.521,1.148,1.148,0,0,1,.7-.207,1.1,1.1,0,0,1,.682.207.669.669,0,0,1,.283.564.449.449,0,0,1-.066.274.342.342,0,0,1-.262.079.2.2,0,0,1-.177-.079.751.751,0,0,1-.05-.342.586.586,0,0,0-.024-.151.636.636,0,0,0-.089-.183.5.5,0,0,0-.168-.146.54.54,0,0,0-.254-.06.482.482,0,0,0-.352.13,1.022,1.022,0,0,0-.219.3,1.538,1.538,0,0,0-.115.385,2.608,2.608,0,0,0-.026.343v1.6h1.064v.251H85.154V589.7a2.74,2.74,0,0,0,.019.345.512.512,0,0,0,.115.258.6.6,0,0,0,.279.167,1.851,1.851,0,0,0,.535.068v.1c-.2-.008-.39-.018-.582-.023s-.381-.011-.575-.011-.358,0-.528.011-.35.014-.531.023Z" transform="translate(-55.735 -584.637)" fill="#569b1c"/>
        <path id="Path_477" data-name="Path 477" d="M88.821,589.574c-.194-.008-.4-.018-.591-.023s-.4-.011-.591-.011c-.13,0-.254,0-.377.011s-.248.014-.377.023v-.1a1.641,1.641,0,0,0,.283-.029.454.454,0,0,0,.193-.089.38.38,0,0,0,.112-.185,1.391,1.391,0,0,0,.032-.331v-1.388c0-.113-.006-.215-.013-.314a.636.636,0,0,0-.075-.258.454.454,0,0,0-.191-.183.881.881,0,0,0-.342-.073v-.1l1.273-.169v2.485a1.292,1.292,0,0,0,.036.331.357.357,0,0,0,.112.185.514.514,0,0,0,.2.089,1.993,1.993,0,0,0,.313.029Z" transform="translate(-53.876 -583.573)" fill="#569b1c"/>
        <path id="Path_478" data-name="Path 478" d="M91.055,587.741c-.055-.141-.118-.283-.19-.426a1.687,1.687,0,0,0-.254-.379,1.153,1.153,0,0,0-.342-.277.911.911,0,0,0-.457-.107.782.782,0,0,0-.445.122.992.992,0,0,0-.3.326,1.557,1.557,0,0,0-.165.444,2.1,2.1,0,0,0-.057.489,1.5,1.5,0,0,0,.092.528,1.476,1.476,0,0,0,.259.45,1.287,1.287,0,0,0,.408.309,1.221,1.221,0,0,0,.53.113,1.579,1.579,0,0,0,.591-.113,2.8,2.8,0,0,0,.526-.29l.118.135a3.117,3.117,0,0,1-.744.467,2.021,2.021,0,0,1-.816.152,1.486,1.486,0,0,1-.624-.133,1.66,1.66,0,0,1-.52-.36,1.746,1.746,0,0,1-.356-.533,1.57,1.57,0,0,1-.134-.653,1.537,1.537,0,0,1,.134-.643,1.732,1.732,0,0,1,.356-.538,1.6,1.6,0,0,1,.52-.358,1.5,1.5,0,0,1,.624-.13,5.383,5.383,0,0,1,.648.032c.191.023.389.062.583.1l.11,1.275Z" transform="translate(-53.074 -583.583)" fill="#569b1c"/>
        <path id="Path_479" data-name="Path 479" d="M90.987,587.788a1.889,1.889,0,0,0,.113.723,1.342,1.342,0,0,0,.283.457,1.123,1.123,0,0,0,.369.233,1.342,1.342,0,0,0,.366.066,1.657,1.657,0,0,0,.638-.117,1.6,1.6,0,0,0,.526-.356l.143.136a2.841,2.841,0,0,1-.7.564,1.828,1.828,0,0,1-.865.19,1.449,1.449,0,0,1-.645-.138,1.571,1.571,0,0,1-.488-.381,1.671,1.671,0,0,1-.306-.535,1.933,1.933,0,0,1-.1-.625,1.87,1.87,0,0,1,.1-.617,1.637,1.637,0,0,1,.306-.538,1.576,1.576,0,0,1,.488-.381,1.448,1.448,0,0,1,.645-.133,1.529,1.529,0,0,1,1.066.357,1.7,1.7,0,0,1,.494,1.095Zm1.634-.249a3.218,3.218,0,0,0-.068-.406.852.852,0,0,0-.131-.3.631.631,0,0,0-.245-.185,1.059,1.059,0,0,0-.387-.062.6.6,0,0,0-.322.091.845.845,0,0,0-.253.222.976.976,0,0,0-.156.313,1.009,1.009,0,0,0-.055.33Z" transform="translate(-51.749 -583.583)" fill="#569b1c"/>
      </g>
      <path id="Path_480" data-name="Path 480" d="M89.088,585.9a.735.735,0,1,1-1.471,0,.726.726,0,0,1,.271-.565.585.585,0,0,0-.024-.149.6.6,0,0,0-.089-.183.539.539,0,0,0-.165-.146.559.559,0,0,0-.258-.06.478.478,0,0,0-.35.13.972.972,0,0,0-.22.3,1.352,1.352,0,0,0-.11.385,2.193,2.193,0,0,0-.029.343v1.6h1.063v.251H86.642V589.7a2.468,2.468,0,0,0,.019.345.508.508,0,0,0,.112.258.61.61,0,0,0,.28.167,1.859,1.859,0,0,0,.535.068v.1c-.2-.008-.389-.018-.58-.023s-.386-.011-.58-.011c-.177,0-.355,0-.526.011s-.348.014-.528.023v-.1a.794.794,0,0,0,.34-.068.427.427,0,0,0,.183-.167.614.614,0,0,0,.075-.258,3.169,3.169,0,0,0,.015-.345v-1.889h-.411l.05-.251h.361v-.9a2.775,2.775,0,0,1,.078-.635,2.4,2.4,0,0,1,.258-.663,1.669,1.669,0,0,1,.46-.521,1.15,1.15,0,0,1,.7-.207,1.114,1.114,0,0,1,.682.207.64.64,0,0,1,.24.332A.728.728,0,0,1,89.088,585.9Zm-.735-.287a.289.289,0,1,0,.288.287A.288.288,0,0,0,88.353,585.617Z" transform="translate(-54.813 -584.637)" fill="#569b1c"/>
    </g>
  </g>
  <g id="Group_246" data-name="Group 246" transform="translate(61.349 21.023)">
    <g id="Group_245" data-name="Group 245">
      <path id="Path_481" data-name="Path 481" d="M112,575.657c0-.585-.178-.747-.667-.747h-.682c-.083,0-.115-.036-.115-.1V574.4c0-.1.016-.126.1-.126.225,0,.957.047,2.065.047,1.171,0,1.691-.047,1.918-.047.117,0,.133.047.133.11v.39c0,.065-.016.133-.115.133H114c-.295,0-.505.112-.505.617v2.146c0,.23.065.392.065.525s-.1.194-.261.263a9.221,9.221,0,0,1-4.443,1.038,6.26,6.26,0,0,1-4.558-1.856,6.33,6.33,0,0,1-1.5-4.477,5.638,5.638,0,0,1,1.837-4.132,6.7,6.7,0,0,1,4.576-1.547,5.774,5.774,0,0,1,3.207.946c.177.143.277.11.374-.018l.245-.292c.065-.068.13-.147.227-.147.113,0,.144.079.144.194l.052,3.11c0,.079-.015.144-.083.144l-.292.034a.139.139,0,0,1-.13-.13,5.487,5.487,0,0,0-.978-1.923,3.811,3.811,0,0,0-2.963-1.332,3.911,3.911,0,0,0-3.107,1.319,5.458,5.458,0,0,0-1.43,3.742,6.3,6.3,0,0,0,1.545,4.56,4.04,4.04,0,0,0,2.862,1.152,5.251,5.251,0,0,0,2.671-.552c.374-.228.437-.586.437-1.432Z" transform="translate(-102.801 -567.486)" fill="#529823"/>
      <path id="Path_482" data-name="Path 482" d="M113.475,573.12c0-.833-.131-1-.588-1.238l-.308-.168c-.1-.028-.131-.039-.131-.105v-.1c0-.067.032-.094.131-.148l1.61-.826a.472.472,0,0,1,.228-.068c.1,0,.117.1.117.2l.078,1.153h.066a2.787,2.787,0,0,1,1.955-1.417.736.736,0,0,1,.826.718.789.789,0,0,1-.684.8,1.038,1.038,0,0,1-.47-.136,1.071,1.071,0,0,0-.538-.133,1.155,1.155,0,0,0-.957.687,1.737,1.737,0,0,0-.165.522v3.387c0,.5.112.666.455.666h.766c.1,0,.113.05.113.146v.295c0,.1-.018.146-.081.146-.1,0-.847-.045-1.727-.045-1.008,0-1.693.045-1.79.045-.066,0-.1-.032-.1-.164v-.277c0-.112.031-.146.178-.146h.638c.241,0,.356-.1.356-.306.016-.538.016-1.11.016-1.952Z" transform="translate(-96.921 -565.68)" fill="#529823"/>
      <path id="Path_483" data-name="Path 483" d="M118.519,573.095a4.212,4.212,0,0,0-.049.782,2.542,2.542,0,0,0,2.31,2.8,2.2,2.2,0,0,0,1.97-1.1.139.139,0,0,1,.149-.084l.212.115c.045.02.079.067,0,.243a2.937,2.937,0,0,1-2.59,1.775,2.986,2.986,0,0,1-2.556-1.155,3.867,3.867,0,0,1-.716-2.571,3.651,3.651,0,0,1,1.027-2.589,3.01,3.01,0,0,1,2.326-.863,2.426,2.426,0,0,1,2.393,2.393c0,.23-.194.262-.457.262Zm2.59-.492c.308,0,.436-.079.436-.224,0-.376-.194-1.451-1.252-1.451-.716,0-1.4.478-1.706,1.675Z" transform="translate(-93.844 -565.655)" fill="#529823"/>
      <path id="Path_484" data-name="Path 484" d="M124.307,573.095a4.317,4.317,0,0,0-.05.782,2.544,2.544,0,0,0,2.315,2.8,2.2,2.2,0,0,0,1.968-1.1.132.132,0,0,1,.144-.084l.211.115c.05.02.084.067,0,.243a2.927,2.927,0,0,1-2.585,1.775,2.972,2.972,0,0,1-2.555-1.155,3.868,3.868,0,0,1-.718-2.571,3.66,3.66,0,0,1,1.024-2.589,3.017,3.017,0,0,1,2.329-.863,2.427,2.427,0,0,1,2.393,2.393c0,.23-.194.262-.457.262Zm2.59-.492c.3,0,.437-.079.437-.224,0-.376-.2-1.451-1.255-1.451-.716,0-1.4.478-1.707,1.675Z" transform="translate(-90.256 -565.655)" fill="#529823"/>
      <path id="Path_485" data-name="Path 485" d="M135.5,576.542c0,.259.146.344.358.344h.52c.149,0,.178.05.178.146v.263c0,.113-.029.178-.13.178s-.619-.045-1.547-.045c-.831,0-1.349.045-1.463.045s-.131-.045-.131-.178v-.263c0-.112.05-.146.214-.146h.47c.18,0,.311-.084.327-.371.015-.423.029-.946.029-1.369v-2.151c0-.648,0-1.121-.471-1.465a1.781,1.781,0,0,0-1.187-.293,1.907,1.907,0,0,0-1.32.637,1.605,1.605,0,0,0-.371,1.106v3.368c0,.439.049.538.389.538h.407c.131,0,.164.05.164.165v.275c0,.1-.032.146-.113.146-.113,0-.551-.045-1.416-.045-.831,0-1.353.045-1.45.045-.081,0-.113-.045-.113-.146v-.295c0-.1.032-.146.162-.146h.471c.212,0,.326-.05.326-.324V572.75a1,1,0,0,0-.667-.959l-.13-.066c-.112-.047-.13-.1-.13-.141V571.5c0-.084.065-.133.144-.165l1.4-.779a.845.845,0,0,1,.295-.115c.081,0,.112.068.13.2l.115.987h.032a3.287,3.287,0,0,1,2.231-1.184,2.492,2.492,0,0,1,1.383.36,2.368,2.368,0,0,1,.894,1.547Z" transform="translate(-86.656 -565.655)" fill="#529823"/>
      <path id="Path_486" data-name="Path 486" d="M141.3,571.774c0-1.2,0-2.249-.018-2.72-.015-.536-.209-.813-.616-.813h-.65c-.083,0-.1-.045-.1-.112v-.407c0-.084.018-.115.1-.115.143,0,.65.049,2.015.049.912,0,2.427-.049,2.717-.049a4.445,4.445,0,0,1,3.045.993,2.733,2.733,0,0,1,.847,1.855c0,2.031-.927,2.8-3.011,3.256v.032a1.668,1.668,0,0,1,.748.616c.2.212,1.353,1.874,1.482,2.085a13,13,0,0,0,1.43,1.874,1.911,1.911,0,0,0,1.173.274c.113,0,.13.066.13.133v.358c0,.1-.016.146-.13.146s-.552-.045-1.267-.045c-.475,0-1.077.028-1.32.045a8.06,8.06,0,0,1-.684-.93c-.131-.194-1.008-1.741-1.092-1.869-.065-.115-.844-1.283-1.04-1.513a2.043,2.043,0,0,0-1.759-.944,2.434,2.434,0,0,0-.538.047v.909c0,.962.018,2.786.032,3.029.036.342.164.635.408.635h1.025c.115,0,.13.05.13.133v.358c0,.113-.015.146-.177.146-.181,0-.586-.045-2.135-.045-1.482,0-1.855.045-2.031.045-.133,0-.133-.045-.133-.131v-.373c0-.083,0-.133.081-.133h.667c.358,0,.635-.112.635-.556.032-1.607.032-3.139.032-4.683Zm1.464,1.607a3.084,3.084,0,0,0,.732.065c2.963,0,3.535-2.025,3.535-2.713a2.474,2.474,0,0,0-.815-1.856,3.919,3.919,0,0,0-2.7-.747,1.053,1.053,0,0,0-.554.128.64.64,0,0,0-.2.523Z" transform="translate(-79.811 -567.411)" fill="#529823"/>
      <path id="Path_487" data-name="Path 487" d="M149.513,573.095a4.453,4.453,0,0,0-.045.782,2.542,2.542,0,0,0,2.312,2.8,2.189,2.189,0,0,0,1.965-1.1.141.141,0,0,1,.149-.084l.211.115c.049.02.084.067,0,.243a2.928,2.928,0,0,1-2.589,1.775,2.976,2.976,0,0,1-2.553-1.155,3.867,3.867,0,0,1-.716-2.571,3.66,3.66,0,0,1,1.024-2.589,3.012,3.012,0,0,1,2.328-.863,2.427,2.427,0,0,1,2.394,2.393c0,.23-.2.262-.457.262Zm2.59-.492c.309,0,.439-.079.439-.224,0-.376-.194-1.451-1.252-1.451-.719,0-1.4.478-1.709,1.675Z" transform="translate(-74.629 -565.655)" fill="#529823"/>
      <path id="Path_488" data-name="Path 488" d="M157.591,575.878h.049c.259-.638,1.4-3.436,1.562-4.071.115-.442,0-.7-.292-.7h-.329c-.047,0-.063-.079-.063-.164v-.29c0-.1.032-.133.1-.133.227,0,.583.047,1.3.047.633,0,1.025-.047,1.174-.047.128,0,.144.015.144.146v.277c0,.117,0,.164-.083.164h-.308a.657.657,0,0,0-.505.177,16.649,16.649,0,0,0-1.3,2.623c-.2.488-1.4,3.227-1.466,3.337-.13.227-.211.374-.39.374-.164,0-.262-.147-.342-.342-.034-.083-1.221-3.172-1.268-3.308s-.719-2-.831-2.261c-.212-.473-.374-.6-.669-.6h-.326c-.081,0-.1-.066-.1-.164v-.29c0-.118.034-.133.178-.133.181,0,.457.047,1.369.047.86,0,1.285-.047,1.466-.047.13,0,.16.031.16.133v.29c0,.1-.016.164-.112.164h-.326a.278.278,0,0,0-.295.308,13.571,13.571,0,0,0,.522,1.939C156.713,573.664,157.411,575.536,157.591,575.878Z" transform="translate(-71.278 -565.605)" fill="#529823"/>
      <path id="Path_489" data-name="Path 489" d="M161.119,574.09c0-.554-.1-.849-.912-.977-.115-.023-.147-.05-.147-.115v-.146c0-.045.032-.084.115-.117a12.773,12.773,0,0,0,1.758-.8.7.7,0,0,1,.309-.1c.081,0,.1.081.081.2-.032.277-.032,1.3-.032,2.65v1.775c0,.637,0,1.216.016,1.4.032.309.081.423.261.423h.748c.13,0,.164.05.164.146v.277c0,.118-.034.164-.147.164-.131,0-.878-.045-1.562-.045-.944,0-1.581.045-1.759.045-.081,0-.13-.032-.13-.131v-.326c0-.1.049-.13.162-.13h.8c.178,0,.245-.065.261-.324.016-.489.016-.993.016-1.482Zm-.766-5a.961.961,0,0,1,1.024-.912.86.86,0,0,1,.881.86.933.933,0,0,1-.977.962A.992.992,0,0,1,160.352,569.091Z" transform="translate(-67.416 -567.056)" fill="#529823"/>
      <path id="Path_490" data-name="Path 490" d="M167.641,575.878h.045c.261-.638,1.4-3.436,1.562-4.071.115-.442,0-.7-.292-.7h-.326c-.047,0-.065-.079-.065-.164v-.29c0-.1.032-.133.1-.133.227,0,.583.047,1.3.047.638,0,1.027-.047,1.176-.047.126,0,.144.015.144.146v.277c0,.117,0,.164-.081.164h-.309a.653.653,0,0,0-.505.177,17.378,17.378,0,0,0-1.3,2.623c-.194.488-1.4,3.227-1.463,3.337-.131.227-.214.374-.394.374-.16,0-.258-.147-.339-.342-.032-.083-1.223-3.172-1.27-3.308s-.716-2-.833-2.261c-.209-.473-.374-.6-.664-.6H163.8c-.081,0-.1-.066-.1-.164v-.29c0-.118.034-.133.18-.133.18,0,.455.047,1.367.047.862,0,1.286-.047,1.464-.047.13,0,.162.031.162.133v.29c0,.1-.013.164-.112.164h-.327a.275.275,0,0,0-.292.308,13.569,13.569,0,0,0,.523,1.939C166.76,573.664,167.459,575.536,167.641,575.878Z" transform="translate(-65.05 -565.605)" fill="#529823"/>
      <path id="Path_491" data-name="Path 491" d="M174.868,575.484c0,.927.2,1.223.489,1.223a.743.743,0,0,0,.57-.245c.063-.083.1-.115.16-.063l.162.128c.052.052.084.131-.016.293a1.339,1.339,0,0,1-1.267.8,1.215,1.215,0,0,1-1.158-1.09h-.031a3.483,3.483,0,0,1-1.609.993,3.1,3.1,0,0,1-.962.1c-.392,0-.978-.324-.978-1.349,0-.752.342-1.4,1.628-1.972a10.985,10.985,0,0,0,1.842-.944v-1.042a1.866,1.866,0,0,0-.232-.905,1.221,1.221,0,0,0-.975-.361,1.837,1.837,0,0,0-1.058.343c-.227.209-.081.452-.081.747,0,.568-.194.928-.863.928-.261,0-.39-.144-.39-.522a2.06,2.06,0,0,1,1.123-1.532,3.6,3.6,0,0,1,1.988-.569,1.692,1.692,0,0,1,1.3.438,1.447,1.447,0,0,1,.358,1.16v3.447Zm-1.187-1.643c-.588.442-2.18.765-2.18,2.116a.8.8,0,0,0,.844.894c.473,0,1.336-.572,1.336-1.009Z" transform="translate(-61.081 -565.655)" fill="#529823"/>
      <path id="Path_492" data-name="Path 492" d="M178.123,574.4c0,.847,0,3.3.018,3.808.016.279.079.505.424.505h.731c.147,0,.18.05.18.146v.277c0,.1-.032.164-.1.164-.113,0-.828-.045-1.84-.045-1.04,0-1.691.045-1.837.045-.081,0-.113-.065-.113-.164v-.277c0-.112.032-.146.212-.146h.782c.177,0,.34-.113.36-.408.011-.5.011-3.306.011-4.247v-1.025c0-1.157-.011-2.636-.047-3.057a.983.983,0,0,0-.815-.982l-.326-.109c-.081-.034-.1-.05-.1-.084v-.13c0-.048.052-.083.147-.115a14.036,14.036,0,0,0,1.905-.946.587.587,0,0,1,.342-.128c.113,0,.146.081.131.293-.018.9-.066,4.28-.066,5.176Z" transform="translate(-57.681 -567.486)" fill="#529823"/>
    </g>
  </g>
  <g id="Group_247" data-name="Group 247" transform="translate(61.743 38.496)">
    <path id="Path_493" data-name="Path 493" d="M105.89,580.093a2.48,2.48,0,0,0,1.056.348,2.6,2.6,0,0,0,1.283-.444c.057-.037.076-.052.1-.052a.085.085,0,0,1,.089.083,2.477,2.477,0,0,1-1.67.737,2.4,2.4,0,0,1-1.137-.368,2.067,2.067,0,0,0-1.061-.337,2.417,2.417,0,0,0-1.2.363c-.032.018-.211.139-.224.139a.081.081,0,0,1-.083-.083,2.116,2.116,0,0,1,2.846-.387Z" transform="translate(-103.044 -577.38)" fill="#529823"/>
    <path id="Path_494" data-name="Path 494" d="M108.155,580.182a.055.055,0,0,1,.057-.052c.019,0,.35.089.42.089a10.566,10.566,0,0,0,1.068-.191c.107-.076.113-.718.113-.749a.816.816,0,0,0-.157-.541c-.1-.113-.109-.126-.109-.146,0-.044.076-.05.1-.05.424,0,.672.241.672.407,0,.013-.241.82-.241.94,0,.039.026.057.07.057s.324-.031.376-.031a.75.75,0,0,1,.844.813,4.069,4.069,0,0,1-.546,2.039.985.985,0,0,1-.648.387c-.243,0-.306-.235-.376-.439-.011-.031-.081-.2-.081-.209a.029.029,0,0,1,.031-.032,1.137,1.137,0,0,1,.159.045,2.152,2.152,0,0,0,.324.044c.185,0,.42-.089.6-.774a5.078,5.078,0,0,0,.2-1.1c0-.445-.253-.478-.437-.478a1.386,1.386,0,0,0-.609.152c-.026.032-.032.058-.1.274-.253.863-.87,2.427-1.383,2.427a.187.187,0,0,1-.2-.2c0-.135.045-.185.426-.6a3.71,3.71,0,0,0,.781-1.435,1.688,1.688,0,0,0,.089-.3c0-.018,0-.05-.044-.05-.141,0-.731.254-.859.254C108.447,580.722,108.155,580.322,108.155,580.182Zm4.434,1.32c-.063,0-.356-.172-.433-.19-.031-.013-.2-.026-.2-.045,0-.037.209-.146.248-.178.235-.177.261-.2.261-.368a.814.814,0,0,0-.515-.731c-.052-.026-.152-.07-.152-.1s.024-.037.044-.037a1.166,1.166,0,0,1,1.113,1.124C112.952,581.059,112.856,581.5,112.589,581.5Z" transform="translate(-99.876 -578.104)" fill="#529823"/>
    <path id="Path_495" data-name="Path 495" d="M112.881,579.927a.091.091,0,0,1,.1-.1c.063,0,.329.076.387.076.159,0,.241-.037,1.022-.355a5.8,5.8,0,0,1,1.78-.478,1.583,1.583,0,0,1,1.618,1.57c.008,1.157-1.181,1.842-2.548,1.842-.057,0-.151,0-.151-.083,0-.05.024-.05.259-.083a2.016,2.016,0,0,0,1.95-1.905,1.03,1.03,0,0,0-1.029-1.061,4.559,4.559,0,0,0-2.064.863c-.319.222-.413.261-.586.261A.8.8,0,0,1,112.881,579.927Z" transform="translate(-96.946 -577.778)" fill="#529823"/>
    <path id="Path_496" data-name="Path 496" d="M118.011,579.544a4.057,4.057,0,0,0,1.238-.272,17.025,17.025,0,0,1,2.44-.572c.222,0,.509.089.509.3a.252.252,0,0,1-.254.235c-.083,0-.445-.07-.522-.07-.807,0-1.709.744-1.709,2.381,0,1.068.4,1.137.776,1.137.1,0,.552-.037.6-.037.2,0,.318.083.318.235,0,.337-.7.337-.737.337a1.2,1.2,0,0,1-1.3-1.359,3.347,3.347,0,0,1,.927-2.446,1.268,1.268,0,0,0,.154-.133c0-.013-.026-.013-.039-.013a8.37,8.37,0,0,0-1.887.679.449.449,0,0,1-.222.083c-.318,0-.617-.424-.541-.513C117.787,579.487,117.979,579.544,118.011,579.544Z" transform="translate(-93.928 -578.007)" fill="#529823"/>
    <path id="Path_497" data-name="Path 497" d="M124.746,579.041c0,.019.013.045.013.071a4.765,4.765,0,0,1,.063.685,3.257,3.257,0,0,1-.654,1.861c-.509.776-.833.928-1.085.928-.42,0-.794-.654-.794-1.43a2.237,2.237,0,0,1,.7-1.62,2.627,2.627,0,0,1,2.027-.826,2.057,2.057,0,0,1,1.022.2,1.99,1.99,0,0,1,1.106,1.848,2.367,2.367,0,0,1-1.6,2.235,3.914,3.914,0,0,1-1.055.237c-.026,0-.063-.007-.063-.045,0-.019.013-.026.17-.089a2.632,2.632,0,0,0,2.039-2.388,1.635,1.635,0,0,0-1.759-1.759C124.753,578.954,124.746,579,124.746,579.041Zm-2.064,1.95c0,.413.164.978.552.978.185,0,.337-.076.774-.737a3.63,3.63,0,0,0,.624-1.848c0-.381-.028-.413-.11-.413A2.193,2.193,0,0,0,122.683,580.992Z" transform="translate(-91.114 -578)" fill="#529823"/>
    <path id="Path_498" data-name="Path 498" d="M131.37,578.594a.317.317,0,0,0,.236-.07c.1-.089.12-.1.157-.1s.433.228.433.374c0,.026-.013.052-.1.078a.307.307,0,0,0-.164.12,7.259,7.259,0,0,0-.063,1.213c0,2.509.526,2.8.59,2.8.113,0,.413-.585.463-.585a.023.023,0,0,1,.026.024c0,.013-.026.108-.032.134a3.686,3.686,0,0,0-.113.7.681.681,0,0,0,.019.165c0,.013.057.209.057.222,0,.121-.07.178-.146.178a1.024,1.024,0,0,1-.548-.394c-.685-.82-.7-2.268-.7-3.544,0-.139.019-.82.019-.979s-.134-.172-.211-.172h-2.764c-.05,0-.152,0-.19.083-.013.032-.013.361-.013.407,0,2.47,0,3.105-.624,3.944a2.578,2.578,0,0,1-.724.687.029.029,0,0,1-.019-.026c0-.019.154-.191.23-.287a4.524,4.524,0,0,0,.75-3c0-.407-.013-1.417-.063-1.709-.013-.065-.1-.344-.1-.389a.047.047,0,0,1,.052-.044,1,1,0,0,1,.228.063.988.988,0,0,0,.407.1Zm-1.092,3.266c-.165,0-.165.037-.165.407,0,.628,0,.7.107.7.034,0,.3-.037.35-.044.267-.039.293-.039.293-.1,0-.1-.159-.287-.23-.369-.013-.013-.057-.063-.057-.083s.006-.013.019-.013c.031,0,.978.42.978.961a.228.228,0,0,1-.191.228c-.1,0-.2-.139-.246-.222-.154-.3-.173-.33-.243-.33a.23.23,0,0,0-.076.013c-.318.089-1.861.47-2.014.559-.026.011-.139.113-.17.113s-.053-.019-.1-.113c-.083-.159-.233-.465-.233-.484a.053.053,0,0,1,.057-.057,1.14,1.14,0,0,1,.139.032,1.656,1.656,0,0,0,.292.024c.115,0,.789-.05.8-.05.068-.006.133-.013.151-.063s.019-.693.019-.991c0-.12-.057-.12-.165-.12h-.215c-.089,0-.139.007-.146.113s-.013.337-.267.337c-.126,0-.126-.089-.126-.152,0-.2.024-1.175.024-1.4,0-.013-.024-.317-.024-.324a1.12,1.12,0,0,1-.026-.133c0-.032.013-.044.044-.044s.063.011.293.159a.474.474,0,0,0,.259.063h.185a.139.139,0,0,0,.159-.115c0-.013.006-.292.006-.437,0-.185,0-.23-.1-.23-.12,0-.731.039-.87.039-.018,0-.037,0-.037-.013s.019-.032.164-.063a7.033,7.033,0,0,0,1.519-.439c.026-.013.146-.12.183-.12s.413.3.413.4c0,.05-.037.05-.139.05a5.126,5.126,0,0,0-.744.128c-.031.031-.031.089-.031.629,0,.108.013.172.159.172h.178a.2.2,0,0,0,.211-.122c.044-.076.057-.1.087-.1.007,0,.42.228.42.329,0,.058-.026.078-.07.1s-.1.07-.115.115v.94c0,.115,0,.318-.241.318-.121,0-.134-.076-.152-.152-.013-.05-.076-.05-.139-.05Zm-.687-.172c.172,0,.172-.045.172-.463,0-.559,0-.578-.172-.578h-.215c-.165,0-.165.037-.165.394,0,.622.006.648.172.648Zm.68-1.042c-.052,0-.128,0-.146.076-.013.032-.013.52-.013.578,0,.348,0,.387.159.387h.178c.164,0,.17,0,.17-.769,0-.235,0-.272-.157-.272Z" transform="translate(-88.214 -578.175)" fill="#529823"/>
    <path id="Path_499" data-name="Path 499" d="M134.453,582.847c0,.057-.026.063-.152.089a.522.522,0,0,0-.248.12,7.486,7.486,0,0,1-1.589.839c-.024.007-.183.063-.209.063a.012.012,0,0,1-.011-.013.962.962,0,0,1,.19-.139,6.54,6.54,0,0,0,1.417-1.187,1.642,1.642,0,0,1,.094-.141.078.078,0,0,1,.052-.013.643.643,0,0,1,.246.128C134.32,582.656,134.453,582.777,134.453,582.847Zm1.772-4.39a.28.28,0,0,0,.211-.083c.094-.089.107-.1.144-.1s.476.2.476.331c0,.039-.011.045-.087.109s-.063.076-.063.228v.565c0,.05.024.3.024.356a.277.277,0,0,1-.28.3c-.113,0-.12-.013-.177-.146a.158.158,0,0,0-.17-.1h-.891c-.019,0-.039,0-.039.026s.019.031.076.057.115.057.115.113-.018.058-.121.115c-.044.026-.07.07-.07.2,0,.1.089.1.141.1h1.379a.955.955,0,0,0,.311-.024c.057-.026.272-.317.35-.317s.489.279.489.418c0,.089-.063.089-.236.089h-4.39c-.183,0-.494,0-.755.013-.018.007-.172.02-.185.02s-.031-.013-.057-.039l-.12-.146c-.026-.031-.026-.031-.026-.044s.013-.013.019-.013c.044,0,.233.019.279.019.185.013.515.024.878.024h1.32c.185,0,.185-.146.185-.164,0-.376-.032-.445-.222-.445h-.667a.214.214,0,0,0-.191.089.31.31,0,0,1-.261.133c-.164,0-.178-.126-.178-.209,0-.057.039-.7.039-.833,0-.3,0-.394-.011-.463-.006-.039-.053-.241-.053-.293s.071-.07.1-.07c.083,0,.107.013.361.135a.517.517,0,0,0,.228.05Zm-2.129,3.818a.19.19,0,0,0-.146.057.27.27,0,0,1-.248.133c-.1,0-.177-.024-.177-.152,0-.037.018-.216.024-.254.013-.139.013-.292.013-.437a2.988,2.988,0,0,0-.013-.337,1.342,1.342,0,0,1-.037-.172.073.073,0,0,1,.083-.076,2.08,2.08,0,0,1,.374.152.41.41,0,0,0,.2.052h2a.558.558,0,0,0,.134-.02,1.114,1.114,0,0,1,.2-.1c.081,0,.418.215.418.3,0,.032-.018.052-.076.089-.075.052-.075.083-.075.254,0,.07.018.413.018.489a.253.253,0,0,1-.274.254c-.081,0-.087-.007-.164-.159a.154.154,0,0,0-.16-.083h-.609c-.191,0-.191.037-.191.559,0,.05.019.489.019.578,0,.133,0,.616-.463.616a.191.191,0,0,1-.159-.07,1.355,1.355,0,0,0-.274-.267c-.044-.031-.146-.1-.209-.139,0-.019.019-.019.032-.019s.348.026.394.026c.19,0,.233-.05.233-.215v-.889c0-.152-.094-.178-.183-.178Zm-.019-3.646c-.164,0-.164.1-.164.191,0,.2,0,.272.164.272h2.231c.052,0,.165,0,.165-.152,0-.254,0-.311-.165-.311Zm.013.635c-.044,0-.177,0-.177.126,0,.313,0,.356.177.356H136.3c.037,0,.17,0,.17-.126,0-.313,0-.356-.17-.356Zm2.078,2.84c.191,0,.191-.045.191-.452,0-.152,0-.246-.191-.246h-2c-.183,0-.183.05-.183.431,0,.178,0,.267.183.267Zm1.3,1.474a.26.26,0,0,1-.253.272c-.083,0-.16-.063-.35-.3a2.811,2.811,0,0,0-.8-.718c-.031-.019-.1-.07-.1-.083s.031-.013.044-.013a3.866,3.866,0,0,1,.483.109C137.032,583,137.469,583.3,137.469,583.577Z" transform="translate(-84.943 -578.272)" fill="#529823"/>
    <path id="Path_500" data-name="Path 500" d="M137.617,581.487c0-.191.177-.394.611-.9a2.967,2.967,0,0,0,.539-.946c0-.039-.045-.045-.07-.045-.063,0-.324.052-.382.052a.674.674,0,0,1-.565-.561c0-.018,0-.044.037-.044a1.367,1.367,0,0,1,.243.122,1.016,1.016,0,0,0,.418.113c.522,0,.522-.172.522-.3a.5.5,0,0,0-.052-.222c-.018-.033-.151-.146-.151-.185s.164-.1.28-.1c.151,0,.309.057.322.2.006.083.031.1.285.113.045,0,.287.032.287.165,0,.211-.463.389-.756.5-.094.039-.1.052-.241.376a4.733,4.733,0,0,1-.343.685c-.031.057-.044.076-.044.1a.022.022,0,0,0,.024.024,1.18,1.18,0,0,0,.2-.07.608.608,0,0,1,.248-.05.574.574,0,0,1,.541.387c.044.108.05.121.063.121a3.067,3.067,0,0,0,.261-.343c.209-.293.622-.87,1.176-.87a.6.6,0,0,1,.6.565c0,.3-.5.507-.9.679-.16.07-.876.356-.991.426s-.109.133-.109.267c0,.057.013.324.013.381,0,.1,0,.463-.233.463-.173,0-.2-.209-.2-.324,0-.063.018-.368.018-.374,0-.026,0-.076-.044-.076s-.617.393-.617.756c0,.438.637.438.82.438a2.039,2.039,0,0,0,.407-.037c.091-.013.5-.115.578-.115.133,0,.313.063.313.216,0,.4-.987.42-1.137.42-.808,0-1.233-.33-1.233-.833,0-.407.24-.609.838-1.092a.272.272,0,0,0,.1-.222c0-.287-.05-.643-.306-.643a1.1,1.1,0,0,0-.781.674c-.07.159-.139.311-.342.311C137.737,581.7,137.617,581.659,137.617,581.487Zm1.62-2.4c.013,0,.317-.083.317-.152s-.16-.1-.217-.1c-.087,0-.113.178-.113.2S139.224,579.087,139.237,579.087Zm.577,2.057c0,.013.006.032.026.032s1.272-.509,1.272-.928c0-.159-.141-.19-.224-.19C140.361,580.059,139.814,581.044,139.814,581.144Z" transform="translate(-81.611 -578.146)" fill="#529823"/>
    <path id="Path_501" data-name="Path 501" d="M141.808,578.66c-.013-.019-.026-.032-.026-.045s.013-.011.026-.011c.044,0,.233.018.279.018.311.02.572.026.87.026h1.468c.1,0,.113,0,.217-.133s.113-.159.17-.159a1.175,1.175,0,0,1,.476.374c0,.083-.133.083-.337.083h-.322c-.173,0-.191.089-.191.209,0,.363-.019,1.963-.019,2.287,0,1.246,0,1.379.006,1.626,0,.082.019.457.019.533s0,.471-.326.471c-.17,0-.17-.122-.17-.2,0-.05.019-.274.019-.318.013-.228.024-.463.024-.768,0-.465,0-.515-.144-.515a8.822,8.822,0,0,0-1.443.559c-.057.039-.274.261-.33.261-.076,0-.33-.541-.33-.641,0-.052.026-.052.254-.058.476-.007.539-.133.567-.241.024-.126.031-2.121.031-2.363,0-.146-.006-.6-.006-.642-.007-.063,0-.2-.172-.2-.057,0-.382.026-.426.026-.026,0-.037-.013-.057-.039Zm1.37,2.414c-.177,0-.177.1-.177.33,0,.591,0,.685.209.685a2.517,2.517,0,0,0,.641-.133c.122-.057.152-.12.152-.629,0-.152-.007-.254-.19-.254Zm.019-2.261c-.19,0-.19.032-.19.609,0,.267,0,.35.177.35h.663c.17,0,.17-.026.17-.59,0-.293-.019-.369-.2-.369Zm.617,2.1c.2,0,.2-.032.2-.585,0-.3,0-.381-.17-.381h-.656c-.183,0-.183.013-.183.737,0,.2.07.229.17.229Zm1.009-1.918c-.026-.032-.032-.032-.032-.045s.013-.013.026-.013c.044,0,.243.02.28.02.52.026.692.026.87.026h.526a.368.368,0,0,0,.33-.165c.045-.052.063-.063.1-.063.07,0,.535.241.535.355,0,.045-.013.052-.091.109a1.154,1.154,0,0,0-.22.5,8.22,8.22,0,0,1-.637,1.785.7.7,0,0,0-.1.279,2.749,2.749,0,0,0,1,1.22c.058.045.374.248.374.267,0,.039-.329.063-.394.089a.728.728,0,0,0-.215.146c-.026.026-.05.05-.076.05-.147,0-.667-.837-.826-1.1-.07-.107-.115-.185-.165-.185s-.057.019-.2.2a3.423,3.423,0,0,1-1.315,1.181.054.054,0,0,1-.058-.057c0-.026.363-.368.432-.437.078-.089.865-1.017.865-1.367,0-.107-.324-.985-.363-1.174-.063-.311-.121-.813-.178-1.124-.044-.274-.1-.3-.2-.3-.013,0-.089.011-.1.011s-.039-.019-.058-.044Zm1.137.165c-.476,0-.533,0-.533.209a4.529,4.529,0,0,0,.672,1.907,5.194,5.194,0,0,0,.6-1.926c0-.19-.185-.19-.3-.19Z" transform="translate(-79.054 -578.221)" fill="#529823"/>
    <path id="Path_502" data-name="Path 502" d="M148.729,579.469c-.541,0-1.048.889-1.048,1.562a1.269,1.269,0,0,0,.083.47.652.652,0,0,1,.057.243.213.213,0,0,1-.228.228c-.292,0-.431-.528-.431-1.03a5.731,5.731,0,0,1,.113-1.009,4.348,4.348,0,0,0,.1-.813.71.71,0,0,0-.083-.394c-.013-.026-.109-.152-.109-.165a.253.253,0,0,1,.172-.045.491.491,0,0,1,.489.426,4.2,4.2,0,0,1-.133.47,6.763,6.763,0,0,0-.139.789c0,.018,0,.088.05.088.031,0,.07-.075.113-.159.07-.139.5-.939,1.17-.939.394,0,.82.211.82,1.544a2.755,2.755,0,0,1-1.385,2.631,1.632,1.632,0,0,1-.458.209c-.013,0-.026-.007-.026-.02s.013-.032.16-.139a2.943,2.943,0,0,0,1.233-2.82C149.244,579.894,149.116,579.469,148.729,579.469Z" transform="translate(-75.695 -578.121)" fill="#529823"/>
    <path id="Path_503" data-name="Path 503" d="M155.035,579.437c.152,0,.152-.013.266-.152.052-.071.071-.071.1-.071a1.065,1.065,0,0,1,.233.108c.2.109.224.122.224.178a.169.169,0,0,1-.07.128c-.122.094-.134.107-.134.2s.013.546.013.648c0,.139-.185.222-.3.222s-.141-.083-.16-.178-.133-.107-.183-.107h-3.113c-.2,0-.2.063-.2.361a4.368,4.368,0,0,1-.839,2.776,1.134,1.134,0,0,1-.311.222.021.021,0,0,1-.019-.019s.146-.157.165-.183c.585-.75.578-2.522.578-3.1a5.922,5.922,0,0,0-.026-.75c-.019-.113-.076-.348-.076-.368,0-.039.026-.063.083-.063a2.253,2.253,0,0,1,.337.12.557.557,0,0,0,.217.026Zm-.032-.782c.266,0,.292,0,.342-.05s.256-.324.319-.324c.044,0,.6.369.6.452s-.128.089-.343.089H151.8c-.561,0-.744.011-.807.018-.019,0-.117.013-.134.013s-.032-.013-.057-.037l-.121-.147c-.024-.031-.024-.031-.024-.044s.006-.013.018-.013c.045,0,.243.019.28.019.311.013.572.024.87.024Zm-3.17,2.981c-.024-.026-.024-.032-.024-.039s.006-.02.018-.02c.045,0,.241.026.28.026.515.026.7.019.922.019.157,0,.233,0,.233-.559a1.068,1.068,0,0,0-.057-.426.745.745,0,0,1-.05-.1.021.021,0,0,1,.019-.02c.011,0,.235.045.381.078.381.087.426.094.426.165,0,.037-.019.05-.172.164a2.063,2.063,0,0,0-.1.585c0,.115.083.115.146.115h.978c.293,0,.324,0,.381-.05s.28-.337.35-.337c.044,0,.526.381.526.463s-.12.1-.343.1H153.98c-.065,0-.139,0-.139.063,0,.044.413,1.081,2.177,1.575a1.788,1.788,0,0,1,.249.083,2.23,2.23,0,0,1-.267.128,1.383,1.383,0,0,0-.313.248c-.044.057-.057.076-.107.076a3.5,3.5,0,0,1-1.829-1.957c-.045-.133-.052-.152-.078-.152s-.037.044-.063.121a2.755,2.755,0,0,1-1.779,1.9,2.207,2.207,0,0,1-.381.1.035.035,0,0,1-.032-.026c0-.013.313-.159.369-.2a3,3,0,0,0,.876-.774,2.563,2.563,0,0,0,.489-1.08c0-.094-.057-.107-.146-.107-.254,0-.561,0-.807.013-.026,0-.178.018-.191.018s-.032-.018-.057-.044Zm.076-2.033c-.094,0-.2,0-.2.172,0,.424,0,.476.2.476h3.113c.2,0,.2-.063.2-.3,0-.287,0-.343-.2-.343Z" transform="translate(-73.598 -578.267)" fill="#529823"/>
    <path id="Path_504" data-name="Path 504" d="M156.287,579.913a12.846,12.846,0,0,0,1.728-.216c.33-.058.368-.063.368-.228a3.749,3.749,0,0,0-.089-.865c-.006-.031-.109-.146-.109-.178s.1-.044.134-.044c.279,0,.526.115.526.317,0,.032-.024.165-.024.2,0,.146.183.241.557.4a1.41,1.41,0,0,0,.56.126c.063,0,.33-.031.381-.031.083,0,.363.024.363.246,0,.167-.121.224-.343.224-.134,0-.724-.057-.844-.057a2.909,2.909,0,0,0-.687.063c-.089.037-.1.126-.1.685a.832.832,0,0,0,.083.413,2.033,2.033,0,0,1,.183.859,2.257,2.257,0,0,1-1.155,2.02c-.011,0-.032-.007-.032-.026s.261-.317.3-.381a2.05,2.05,0,0,0,.356-.935c0-.019,0-.089-.063-.089-.019,0-.113.013-.133.013-.343,0-.648-.324-.648-.833,0-.083,0-.781.616-.876.178-.024.178-.063.178-.387,0-.343,0-.381-.126-.381a7.7,7.7,0,0,0-1.126.254,5.977,5.977,0,0,1-.68.253c-.138,0-.666-.266-.666-.526a.069.069,0,0,1,.032-.063C155.894,579.876,156.2,579.913,156.287,579.913Zm1.886,1.055c-.157,0-.36.261-.36.585a.459.459,0,0,0,.411.509c.248,0,.254-.382.254-.483a1.22,1.22,0,0,0-.083-.445A.271.271,0,0,0,158.173,580.967Zm.585-1.518c0,.1.026.12.115.12.024,0,.437-.013.437-.107a1.352,1.352,0,0,0-.483-.337C158.784,579.138,158.758,579.284,158.758,579.45Z" transform="translate(-70.341 -578.204)" fill="#529823"/>
    <path id="Path_505" data-name="Path 505" d="M160.929,582.516a8.594,8.594,0,0,0,.837-2.338c0-.065-.024-.065-.228-.065a1.212,1.212,0,0,1-.565-.113.611.611,0,0,1-.33-.344.027.027,0,0,1,.026-.026c.024,0,.12.052.147.058a2.358,2.358,0,0,0,.564.07,1.4,1.4,0,0,0,.45-.057,1.814,1.814,0,0,0,.07-.522.893.893,0,0,0-.075-.394c-.026-.032-.178-.191-.178-.235,0-.063.12-.146.285-.146a.57.57,0,0,1,.509.337c0,.031-.07.157-.07.19,0,.121.509.228.572.228.026,0,.165-.011.2-.011a.182.182,0,0,1,.211.2c0,.356-.541.539-.961.654-.215.057-.24.063-.266.178a17.127,17.127,0,0,1-.463,1.8c-.437,1.322-.667,1.322-.787,1.322-.154,0-.173-.209-.173-.279S160.731,582.883,160.929,582.516Zm1.34-2.9c.032,0,.514-.172.514-.254,0-.063-.342-.2-.411-.2-.039,0-.058.013-.07.076-.026.128-.026.147-.058.3C162.236,579.574,162.231,579.613,162.268,579.613Zm.483,2.692c.134.554.82.674,1.3.674.107,0,.59-.044.69-.044.217,0,.509.107.509.317,0,.183-.235.215-.774.215-1.03,0-1.887-.261-1.887-1.061,0-.146.039-.279.089-.279C162.707,582.129,162.745,582.287,162.751,582.305Zm1.4-2.21c.6,0,1.059.178,1.059.457,0,.152-.133.152-.183.152s-.3-.019-.356-.019a1.066,1.066,0,0,0-.47.1,1.1,1.1,0,0,1-.267.083c-.013,0-.031,0-.031-.02,0-.044.33-.285.33-.355,0-.1-.45-.1-.546-.1a3.668,3.668,0,0,0-.457.026c-.04.007-.186.024-.211.024-.006,0-.05,0-.057-.011C162.923,580.348,163.475,580.1,164.156,580.1Z" transform="translate(-67.338 -578.189)" fill="#529823"/>
    <path id="Path_506" data-name="Path 506" d="M167.44,583.352c-.107,0-.12,0-.12-.032s.019-.032.183-.083c.839-.274,2-.826,2-1.976a1.321,1.321,0,0,0-1.231-1.3c-.1,0-.109.039-.272.426a5.343,5.343,0,0,1-.484.909.161.161,0,0,0-.032.089.125.125,0,0,0,.1.12c.215.115.285.165.285.319s-.133.2-.235.2a.62.62,0,0,1-.355-.109c-.089-.044-.1-.05-.134-.05-.065,0-.076.013-.191.133a1.9,1.9,0,0,1-1.111.7c-.413,0-.483-.648-.483-.9a2.1,2.1,0,0,1,.667-1.437.2.2,0,0,0,.07-.163c0-.058-.254-.82-.287-.909-.018-.052-.133-.28-.133-.3s0-.018.013-.018a.671.671,0,0,1,.514.342,2.672,2.672,0,0,0,.167.63.132.132,0,0,0,.113.07,1.954,1.954,0,0,0,.306-.133,3.051,3.051,0,0,1,.99-.23.169.169,0,0,0,.16-.083,1.453,1.453,0,0,0,.087-.47,1.242,1.242,0,0,0-.134-.526l-.011-.032c0-.019.05-.019.065-.019.283,0,.627.235.627.387a6.1,6.1,0,0,0-.22.654c0,.1.07.115.12.122a1.683,1.683,0,0,1,1.518,1.626C169.988,582.672,168.571,583.352,167.44,583.352Zm-.71-1.861a2.613,2.613,0,0,1-.434-.731c-.032-.089-.057-.152-.113-.152a1.282,1.282,0,0,0-.515,1.079c0,.343.126.572.274.572a1.53,1.53,0,0,0,.833-.654A.144.144,0,0,0,166.731,581.491Zm.964-1.557a2.064,2.064,0,0,0-.964.235c-.11.063-.173.107-.173.2,0,.109.363.807.533.807.065,0,.091-.011.224-.228a4.011,4.011,0,0,0,.47-.933C167.784,579.934,167.72,579.934,167.695,579.934Z" transform="translate(-64.415 -578.116)" fill="#529823"/>
    <path id="Path_507" data-name="Path 507" d="M170.561,581.826c.107,0,.165-.1.306-.5.037-.107.057-.159.087-.159s.032.063.032.076c0,.07-.146.813-.146.966a1.185,1.185,0,0,0,.1.33.675.675,0,0,1,.076.28.212.212,0,0,1-.209.215c-.394,0-.685-1.081-.685-1.69a4.535,4.535,0,0,1,.267-1.385,2.176,2.176,0,0,0,.107-.661,1.539,1.539,0,0,0-.063-.45.793.793,0,0,1-.039-.115c0-.019.026-.031.052-.031.292,0,.557.577.557.807,0,.07,0,.076-.12.292a4.956,4.956,0,0,0-.489,1.639C170.4,581.635,170.461,581.826,170.561,581.826Zm3.69.635c0,.248-.19.324-1.081.324a1.3,1.3,0,0,1-.99-.285c-.031-.032-.2-.2-.2-.317,0-.013,0-.065.031-.065a.868.868,0,0,1,.152.089,1.563,1.563,0,0,0,.68.109,5.193,5.193,0,0,0,.552-.019c.089-.006.533-.05.559-.05C174.2,582.246,174.252,582.385,174.252,582.461Zm-.3-3.094c0,.313-.7.313-.782.313a1.244,1.244,0,0,1-1.11-.471c0-.011.006-.031.044-.031.019,0,.1.024.178.044a2.127,2.127,0,0,0,.431.039,2.532,2.532,0,0,0,.7-.1c.191-.07.211-.076.274-.07A.316.316,0,0,1,173.954,579.367Z" transform="translate(-61.46 -578.002)" fill="#529823"/>
    <path id="Path_508" data-name="Path 508" d="M177.284,580.093a2.468,2.468,0,0,0,1.055.348,2.59,2.59,0,0,0,1.283-.444c.057-.037.076-.052.1-.052a.084.084,0,0,1,.087.083,2.477,2.477,0,0,1-1.67.737,2.4,2.4,0,0,1-1.136-.368,2.071,2.071,0,0,0-1.061-.337,2.423,2.423,0,0,0-1.2.363c-.031.018-.209.139-.222.139a.081.081,0,0,1-.083-.083,2.116,2.116,0,0,1,2.846-.387Z" transform="translate(-58.785 -577.38)" fill="#529823"/>
  </g>
</svg>
