<svg id="Group_240" data-name="Group 240" xmlns="http://www.w3.org/2000/svg" width="181.822" height="52.983" viewBox="0 0 181.822 52.983">
  <g id="Group_239" data-name="Group 239" transform="translate(0 0)">
    <g id="Group_237" data-name="Group 237" transform="translate(0 12.14)">
      <path id="Path_428" data-name="Path 428" d="M73.614,132.562l-1.768-9-3.89,9H66.494l4.873-11.233h1.72l1.661,9.085L78.7,121.33h1.441l-4.876,11.233H73.614" transform="translate(-54.014 -121.33)" fill="#3b3938"/>
      <path id="Path_429" data-name="Path 429" d="M81.131,130.479c-.135.308.239.593.738.449l-.418.969-1.158.148a.838.838,0,0,1-.61-1.181,6.782,6.782,0,0,1-3.084,1.181c-1.833.082-2.5-.946-1.715-2.529a3.809,3.809,0,0,1,2.608-2.115,26.841,26.841,0,0,1,3.191-.474,1.292,1.292,0,0,0,.924-.625l.418-.953c.132-.567-.949-.907-1.872-.828a2.465,2.465,0,0,0-2.151,1.5H76.754l.371-.724a4.486,4.486,0,0,1,2.038-1.582,5.566,5.566,0,0,1,1.6-.357,5.723,5.723,0,0,1,1.532.139c.919.221,1.523.757,1.2,1.558l-2.366,5.423M81,127.724c-1.234.41-2.655.388-3.552.724a2.423,2.423,0,0,0-1.24,1.089c-.473,1.007.1,1.374.817,1.391a4.384,4.384,0,0,0,3.272-1.583Z" transform="translate(-50.521 -120.452)" fill="#a6a7a7"/>
      <path id="Path_430" data-name="Path 430" d="M85.554,124.186h1.274l-.51,1.184H85.03l-2.423,5.6c-.238.506.314.543,1.095.42l-.483,1.138a5.2,5.2,0,0,1-1.459.1.8.8,0,0,1-.684-1.154l2.657-6.11h-1.1l.5-1.184h1.141l.949-2.191h1.291l-.953,2.191" transform="translate(-47.73 -121.041)" fill="#a6a7a7"/>
      <path id="Path_431" data-name="Path 431" d="M88.76,131.612l.367-.863a5.442,5.442,0,0,1-1.314.88,4.428,4.428,0,0,1-1.767.343,3.158,3.158,0,0,1-1.205-.186,1.584,1.584,0,0,1-.506-1.823l2.789-6.439h1.3l-2.475,5.713c-.268.6-.236,1.039.044,1.3a1.228,1.228,0,0,0,.639.212,2.488,2.488,0,0,0,.944-.095,4.485,4.485,0,0,0,2.792-2.736l1.9-4.4h1.294l-3.508,8.088H88.76" transform="translate(-46.323 -120.379)" fill="#a6a7a7"/>
      <path id="Path_432" data-name="Path 432" d="M93.593,123.6h1.285l-.553,1.264a4.772,4.772,0,0,1,2.529-1.5h.706l-.575,1.359a4.3,4.3,0,0,0-1.316.183,4.238,4.238,0,0,0-2.481,2.574l-1.817,4.209H90.082l3.511-8.088" transform="translate(-43.8 -120.451)" fill="#a6a7a7"/>
      <path id="Path_433" data-name="Path 433" d="M96.156,128.159a2.358,2.358,0,0,0-.318,1.754,1.3,1.3,0,0,0,1.4,1,3.748,3.748,0,0,0,2.878-1.7h1.31A5.717,5.717,0,0,1,100,130.839a5.1,5.1,0,0,1-3.233,1.208,2.231,2.231,0,0,1-2.3-1.3,4.779,4.779,0,0,1,.5-3.067,8.156,8.156,0,0,1,2.344-3.1,5.172,5.172,0,0,1,3.5-1.218,2.054,2.054,0,0,1,1.9,1.159c.358,1.185-.043,2.145-.671,3.637h-5.9m4.984-1.149a2.687,2.687,0,0,0,.234-1.869c0-.358-.467-.651-1.081-.718a2.8,2.8,0,0,0-2.076.718,5.558,5.558,0,0,0-1.5,1.869Z" transform="translate(-41.941 -120.455)" fill="#a6a7a7"/>
      <path id="Path_434" data-name="Path 434" d="M67.09,131.534h7.8l-.553,1.271H67.983l-1.534,3.541h6.086l-.554,1.276H65.9l-1.682,3.861h6.619l-.556,1.286H62.215l4.874-11.236" transform="translate(-55.867 -116.911)" fill="#3b3938"/>
      <path id="Path_435" data-name="Path 435" d="M74.22,133.783l-.449,1.023a4.94,4.94,0,0,1,1.32-.868,3.331,3.331,0,0,1,1.741-.373,3.575,3.575,0,0,1,1.238.2c.31.219.841.622.5,1.82l-2.739,6.3H74.537L77,136.255c.444-1-.1-1.519-.993-1.519-1.042,0-2.518.674-3.439,2.843l-1.847,4.312H69.4l3.535-8.108H74.22" transform="translate(-52.754 -116.032)" fill="#a6a7a7"/>
      <path id="Path_436" data-name="Path 436" d="M76.962,141.825l.672-8.108h1.458l-.765,6.558,5.192-6.558H84.97l-6.612,8.108h-1.4" transform="translate(-49.481 -115.966)" fill="#a6a7a7"/>
      <path id="Path_437" data-name="Path 437" d="M82.492,142.77H81.205l3.5-8.108H86l-3.505,8.108m4.166-9.646H85.365l.712-1.591h1.29Z" transform="translate(-47.644 -116.911)" fill="#a6a7a7"/>
      <path id="Path_438" data-name="Path 438" d="M87.354,133.783h1.32l-.553,1.28a4.549,4.549,0,0,1,2.5-1.5h.711l-.576,1.356a4.794,4.794,0,0,0-1.317.169,4.325,4.325,0,0,0-2.449,2.579l-1.844,4.222h-1.29l3.5-8.108" transform="translate(-46.497 -116.031)" fill="#a6a7a7"/>
      <path id="Path_439" data-name="Path 439" d="M88.7,137.894a8.972,8.972,0,0,1,1.823-2.739,5.372,5.372,0,0,1,3.71-1.591c1.132,0,2.135.421,2.349,1.591A5.7,5.7,0,0,1,96,137.894a9.213,9.213,0,0,1-1.823,2.757,5.416,5.416,0,0,1-3.719,1.594c-1.128,0-2.135-.444-2.316-1.594a5.268,5.268,0,0,1,.55-2.757m4.768,1.813a6.763,6.763,0,0,0,1.208-1.813,4.883,4.883,0,0,0,.378-1.807,1.21,1.21,0,0,0-1.369-1.23,3.226,3.226,0,0,0-2.536,1.23,9.164,9.164,0,0,0-1.106,1.807,4.435,4.435,0,0,0-.391,1.813c0,.866.625,1.235,1.4,1.235A3.293,3.293,0,0,0,93.464,139.707Z" transform="translate(-44.653 -116.031)" fill="#a6a7a7"/>
      <path id="Path_440" data-name="Path 440" d="M98.7,133.783l-.447,1.023a5.386,5.386,0,0,1,1.314-.868,3.417,3.417,0,0,1,1.776-.373,3.467,3.467,0,0,1,1.207.2c.32.219.837.622.5,1.82l-2.734,6.3h-1.3l2.442-5.636c.461-1-.066-1.519-.944-1.519-1.076,0-2.549.674-3.442,2.843L95.2,141.891H93.9l3.509-8.108H98.7" transform="translate(-42.145 -116.032)" fill="#a6a7a7"/>
      <path id="Path_441" data-name="Path 441" d="M103.655,133.784h1.294l-.45,1.036a5.322,5.322,0,0,1,1.235-.939,4.5,4.5,0,0,1,1.682-.315,1.523,1.523,0,0,1,1.192.3,1.644,1.644,0,0,1,.474.9,5.314,5.314,0,0,1,1.5-1,4.175,4.175,0,0,1,1.293-.2,2.441,2.441,0,0,1,1.4.235,1.48,1.48,0,0,1,.259,1.758l-2.731,6.333h-1.3L112,136.108c.3-1.068-.152-1.371-.97-1.371a3.053,3.053,0,0,0-2.548,1.662l-2.377,5.493h-1.29l2.529-5.821c.34-1.068-.262-1.334-.933-1.334a3.44,3.44,0,0,0-2.728,1.932l-2.271,5.223h-1.293l3.538-8.108" transform="translate(-39.454 -116.032)" fill="#a6a7a7"/>
      <path id="Path_442" data-name="Path 442" d="M111.567,138.36a2.317,2.317,0,0,0-.317,1.757,1.294,1.294,0,0,0,1.391,1,3.753,3.753,0,0,0,2.875-1.7h1.31a5.635,5.635,0,0,1-1.427,1.616,5.081,5.081,0,0,1-3.231,1.212,2.237,2.237,0,0,1-2.289-1.3,4.7,4.7,0,0,1,.5-3.048,8.151,8.151,0,0,1,2.332-3.124,5.166,5.166,0,0,1,3.5-1.205,2.026,2.026,0,0,1,1.906,1.146c.367,1.185-.019,2.148-.656,3.644h-5.9m4.978-1.146a2.825,2.825,0,0,0,.228-1.893c0-.344-.477-.629-1.072-.7a2.944,2.944,0,0,0-2.091.7,6.156,6.156,0,0,0-1.5,1.893Z" transform="translate(-35.27 -116.035)" fill="#a6a7a7"/>
      <path id="Path_443" data-name="Path 443" d="M120.321,133.783l-.424,1.023a4.819,4.819,0,0,1,1.291-.868,3.427,3.427,0,0,1,1.768-.373,3.525,3.525,0,0,1,1.235.2c.291.219.834.622.471,1.82l-2.716,6.3h-1.29l2.426-5.636c.444-1-.059-1.519-.957-1.519-1.07,0-2.522.674-3.444,2.843l-1.87,4.312h-1.285l3.5-8.108h1.293" transform="translate(-32.781 -116.032)" fill="#a6a7a7"/>
      <path id="Path_444" data-name="Path 444" d="M126.652,134.379h1.277l-.5,1.189h-1.285l-2.432,5.616c-.231.5.322.537,1.085.42l-.5,1.135a5.177,5.177,0,0,1-1.422.1.792.792,0,0,1-.691-1.152l2.663-6.12h-1.134l.536-1.189h1.106l.976-2.19h1.284l-.957,2.19" transform="translate(-29.933 -116.627)" fill="#a6a7a7"/>
      <path id="Path_445" data-name="Path 445" d="M57.785,152.97l4.869-11.245h4.323c2.37,0,3.521,1.691,2.525,4.586a10.577,10.577,0,0,1-3.286,4.981,6.671,6.671,0,0,1-3.323,1.678H57.785m5.768-9.96-3.77,8.674h3.135a3.156,3.156,0,0,0,1.268-.245,6.781,6.781,0,0,0,2.128-1.757,17.393,17.393,0,0,0,1.316-2.3,5.593,5.593,0,0,0,.691-2.939,1.8,1.8,0,0,0-2.029-1.436Z" transform="translate(-57.785 -112.498)" fill="#3b3938"/>
      <path id="Path_446" data-name="Path 446" d="M67.827,148.549a2.388,2.388,0,0,0-.32,1.763,1.309,1.309,0,0,0,1.4,1.009,3.685,3.685,0,0,0,2.863-1.7h1.323a5.611,5.611,0,0,1-1.423,1.629,5.221,5.221,0,0,1-3.24,1.192,2.218,2.218,0,0,1-2.286-1.3,4.716,4.716,0,0,1,.494-3.051,8.329,8.329,0,0,1,2.347-3.113,5.15,5.15,0,0,1,3.507-1.208,2.036,2.036,0,0,1,1.9,1.154c.36,1.177-.033,2.142-.668,3.624h-5.9m4.981-1.138a2.733,2.733,0,0,0,.239-1.872c0-.36-.48-.656-1.086-.711a2.846,2.846,0,0,0-2.079.711,5.694,5.694,0,0,0-1.5,1.872Z" transform="translate(-54.209 -111.618)" fill="#a6a7a7"/>
      <path id="Path_447" data-name="Path 447" d="M73.11,152.018l.69-8.1h1.45l-.735,6.552,5.161-6.552h1.45l-6.583,8.1H73.11" transform="translate(-51.149 -111.546)" fill="#a6a7a7"/>
      <path id="Path_448" data-name="Path 448" d="M78.655,152.97h-1.29l3.5-8.1H82.16l-3.505,8.1m4.182-9.631H81.551l.685-1.614h1.287Z" transform="translate(-49.306 -112.498)" fill="#a6a7a7"/>
      <path id="Path_449" data-name="Path 449" d="M87.344,149.3a6.111,6.111,0,0,1-1.132,1.631,5.263,5.263,0,0,1-3.722,1.508c-1.155-.059-2.055-.641-2.074-1.708a5.75,5.75,0,0,1,.633-2.739,8.088,8.088,0,0,1,2.5-3.141,5.114,5.114,0,0,1,2.9-1.081,2.322,2.322,0,0,1,1.976.714c.447.4.335,1.293.026,2.23H87.185c.216-.843.216-1.244-.208-1.506a1.71,1.71,0,0,0-1-.252,3.519,3.519,0,0,0-1.945.838,6.166,6.166,0,0,0-1.5,2.011,4.943,4.943,0,0,0-.666,2.165,1.271,1.271,0,0,0,1.476,1.252,3.1,3.1,0,0,0,1.923-.878A7.46,7.46,0,0,0,86.1,149.3h1.241" transform="translate(-47.989 -111.614)" fill="#a6a7a7"/>
      <path id="Path_450" data-name="Path 450" d="M87.9,148.549a2.272,2.272,0,0,0-.315,1.763,1.258,1.258,0,0,0,1.376,1.009,3.794,3.794,0,0,0,2.9-1.7h1.283a5.647,5.647,0,0,1-1.422,1.629,5.2,5.2,0,0,1-3.236,1.192,2.241,2.241,0,0,1-2.286-1.3,4.614,4.614,0,0,1,.52-3.051,8.464,8.464,0,0,1,2.34-3.113,5.142,5.142,0,0,1,3.512-1.208,2.058,2.058,0,0,1,1.892,1.154c.365,1.177-.052,2.142-.684,3.624H87.9m4.988-1.138a2.763,2.763,0,0,0,.225-1.872c-.021-.36-.46-.656-1.1-.711a2.826,2.826,0,0,0-2.078.711,6.952,6.952,0,0,0-1.5,1.872Z" transform="translate(-45.522 -111.618)" fill="#a6a7a7"/>
      <path id="Path_451" data-name="Path 451" d="M101.807,150.883c-.142.307.236.59.7.449l-.413.976-1.134.13a.825.825,0,0,1-.612-1.166,6.9,6.9,0,0,1-3.074,1.166c-1.853.095-2.541-.943-1.751-2.542A3.969,3.969,0,0,1,98.17,147.8a26.527,26.527,0,0,1,3.187-.483,1.3,1.3,0,0,0,.92-.615l.4-.957c.148-.57-.952-.911-1.846-.825a2.55,2.55,0,0,0-2.193,1.485H97.428l.374-.705a4.228,4.228,0,0,1,2.023-1.592,5.275,5.275,0,0,1,1.583-.341,5.172,5.172,0,0,1,1.551.128c.921.234,1.532.754,1.212,1.565l-2.364,5.421m-.142-2.77c-1.227.428-2.661.4-3.584.739a2.547,2.547,0,0,0-1.231,1.083c-.444,1.012.133,1.383.815,1.4a4.4,4.4,0,0,0,3.3-1.6Z" transform="translate(-41.582 -111.616)" fill="#a6a7a7"/>
      <path id="Path_452" data-name="Path 452" d="M106.113,143.992l-.444,1.027a5.316,5.316,0,0,1,1.3-.89,3.4,3.4,0,0,1,1.76-.361,3.483,3.483,0,0,1,1.241.2c.32.222.84.618.473,1.821l-2.718,6.3h-1.284l2.426-5.635c.463-.992-.057-1.518-.953-1.518-1.081,0-2.525.671-3.462,2.847l-1.863,4.3H101.3l3.5-8.1h1.313" transform="translate(-38.942 -111.615)" fill="#a6a7a7"/>
      <path id="Path_453" data-name="Path 453" d="M118.783,141.725l-4.9,11.255h-1.111l.4-.944a7.511,7.511,0,0,1-1.53.976,3.436,3.436,0,0,1-1.5.308,2.961,2.961,0,0,1-1.473-.328c-.946-.59-.982-2.008-.441-3.491a8.076,8.076,0,0,1,2.685-3.81,4.615,4.615,0,0,1,2.812-1.039,2.385,2.385,0,0,1,1.556.484,1.268,1.268,0,0,1,.424.724l1.787-4.134h1.29m-7.9,10.378a3.108,3.108,0,0,0,1.94-.878,5.571,5.571,0,0,0,1.883-4.49,1.278,1.278,0,0,0-1.273-.767,2.983,2.983,0,0,0-2.028.784c-1.106.939-2.293,3.241-1.89,4.614A1.21,1.21,0,0,0,110.887,152.1Z" transform="translate(-36.094 -112.498)" fill="#a6a7a7"/>
      <path id="Path_454" data-name="Path 454" d="M122.4,141.958h.849l-8.535,11.229h-.844l8.53-11.229" transform="translate(-33.499 -112.397)" fill="#a6a7a7"/>
      <path id="Path_455" data-name="Path 455" d="M119.051,148.088a8.479,8.479,0,0,1,1.844-2.74,5.269,5.269,0,0,1,3.676-1.581c1.168,0,2.151.424,2.356,1.581a5.573,5.573,0,0,1-.585,2.74,9.117,9.117,0,0,1-1.816,2.763,5.347,5.347,0,0,1-3.712,1.585c-1.136,0-2.132-.437-2.319-1.585a5.249,5.249,0,0,1,.555-2.763m4.768,1.806a6.922,6.922,0,0,0,1.205-1.806,4.447,4.447,0,0,0,.367-1.8,1.213,1.213,0,0,0-1.366-1.235,3.188,3.188,0,0,0-2.524,1.235,10.681,10.681,0,0,0-1.115,1.8,4.062,4.062,0,0,0-.367,1.806c-.013.874.631,1.245,1.376,1.245A3.33,3.33,0,0,0,123.819,149.893Z" transform="translate(-31.51 -111.614)" fill="#a6a7a7"/>
      <path id="Path_456" data-name="Path 456" d="M127.742,143.991h1.291l-.524,1.267a4.535,4.535,0,0,1,2.5-1.49h.711l-.582,1.35a4.46,4.46,0,0,0-1.317.186,4.307,4.307,0,0,0-2.449,2.577l-1.841,4.206h-1.3l3.508-8.1" transform="translate(-29.011 -111.614)" fill="#a6a7a7"/>
      <path id="Path_457" data-name="Path 457" d="M138.008,150.883c-.118.307.218.59.715.449l-.416.976-1.132.13a.835.835,0,0,1-.632-1.166,6.851,6.851,0,0,1-3.09,1.166c-1.81.095-2.492-.943-1.712-2.542a3.923,3.923,0,0,1,2.612-2.092,26.758,26.758,0,0,1,3.221-.483,1.273,1.273,0,0,0,.883-.615l.426-.957c.14-.57-.953-.911-1.866-.825a2.49,2.49,0,0,0-2.167,1.485h-1.208l.34-.705a4.565,4.565,0,0,1,2.031-1.592,5.514,5.514,0,0,1,3.158-.214c.894.234,1.509.754,1.2,1.565l-2.362,5.421m-.156-2.77c-1.207.428-2.651.4-3.555.739a2.435,2.435,0,0,0-1.234,1.083c-.477,1.012.1,1.383.811,1.4a4.471,4.471,0,0,0,3.3-1.6Z" transform="translate(-25.898 -111.616)" fill="#a6a7a7"/>
      <path id="Path_458" data-name="Path 458" d="M148.759,141.725l-4.874,11.255h-1.136l.43-.944a8.254,8.254,0,0,1-1.53.976,3.585,3.585,0,0,1-1.528.308,2.946,2.946,0,0,1-1.467-.328c-.953-.59-.953-2.008-.424-3.491a8.122,8.122,0,0,1,2.655-3.81,4.687,4.687,0,0,1,2.846-1.039,2.355,2.355,0,0,1,1.536.484,1.184,1.184,0,0,1,.407.724l1.8-4.134h1.283M140.885,152.1a3.018,3.018,0,0,0,1.912-.878,5.462,5.462,0,0,0,1.88-4.49,1.234,1.234,0,0,0-1.264-.767,2.98,2.98,0,0,0-2.028.784c-1.088.939-2.291,3.241-1.874,4.614A1.215,1.215,0,0,0,140.885,152.1Z" transform="translate(-23.104 -112.498)" fill="#a6a7a7"/>
      <path id="Path_459" data-name="Path 459" d="M147.251,143.993h1.291l-.45,1.036a5.263,5.263,0,0,1,1.262-.946,4.255,4.255,0,0,1,1.662-.314,1.55,1.55,0,0,1,1.207.3,1.467,1.467,0,0,1,.447.906,5.888,5.888,0,0,1,1.528-1.006,3.923,3.923,0,0,1,1.275-.2,2.351,2.351,0,0,1,1.386.235,1.489,1.489,0,0,1,.268,1.763l-2.733,6.321h-1.3l2.5-5.785c.288-1.06-.156-1.367-.952-1.367a3.071,3.071,0,0,0-2.557,1.664l-2.395,5.488H148.4l2.532-5.811c.365-1.07-.256-1.341-.888-1.341a3.389,3.389,0,0,0-2.747,1.948l-2.264,5.2h-1.293l3.508-8.1" transform="translate(-20.563 -111.616)" fill="#a6a7a7"/>
      <path id="Path_460" data-name="Path 460" d="M154.175,152.97h-1.3l3.5-8.1h1.3l-3.507,8.1m4.189-9.631h-1.293l.685-1.614h1.3Z" transform="translate(-16.607 -112.498)" fill="#a6a7a7"/>
      <path id="Path_461" data-name="Path 461" d="M160.341,143.992l-.421,1.027a5.242,5.242,0,0,1,1.284-.89,3.422,3.422,0,0,1,1.758-.361,3.545,3.545,0,0,1,1.254.2c.285.222.847.618.482,1.821l-2.723,6.3h-1.29l2.42-5.635c.446-.992-.05-1.518-.943-1.518-1.079,0-2.535.671-3.454,2.847l-1.864,4.3h-1.3l3.5-8.1h1.294" transform="translate(-15.452 -111.615)" fill="#a6a7a7"/>
      <path id="Path_462" data-name="Path 462" d="M163.021,152.97h-1.3l3.508-8.1h1.294l-3.5,8.1m4.186-9.631h-1.3l.686-1.614h1.285Z" transform="translate(-12.778 -112.498)" fill="#a6a7a7"/>
      <path id="Path_463" data-name="Path 463" d="M166.03,149.693c-.107.665-.374,1.208.729,1.576a2.953,2.953,0,0,0,1.113.047,4.238,4.238,0,0,0,1.161-.324,2.483,2.483,0,0,0,.953-.989.7.7,0,0,0-.451-1.03,14.482,14.482,0,0,1-2.638-.825c-.522-.224-.84-.78-.345-1.969a4.468,4.468,0,0,1,4.037-2.412c2.663,0,2.3,1.581,1.922,2.488h-1.271c.109-.226.691-1.237-1.287-1.293a2.983,2.983,0,0,0-1.952.86c-.367.421-.446.881-.08,1.109a4.987,4.987,0,0,0,1.644.606,3.478,3.478,0,0,1,1.578.61c.522.42.471,1.221,0,2.015a4.5,4.5,0,0,1-2.29,1.933,5.9,5.9,0,0,1-1.612.34,5.3,5.3,0,0,1-1.5-.107c-1.952-.471-1.053-2.34-.917-2.635h1.208" transform="translate(-11.576 -111.614)" fill="#a6a7a7"/>
      <path id="Path_464" data-name="Path 464" d="M174.918,144.584h1.274l-.506,1.185h-1.3l-2.419,5.61c-.239.51.311.543,1.08.426l-.473,1.138a5.349,5.349,0,0,1-1.446.086.777.777,0,0,1-.691-1.139l2.66-6.12h-1.131l.526-1.185h1.126l.957-2.188h1.29l-.953,2.188" transform="translate(-9.034 -112.207)" fill="#a6a7a7"/>
      <path id="Path_465" data-name="Path 465" d="M175.478,148.549a2.353,2.353,0,0,0-.314,1.763,1.285,1.285,0,0,0,1.373,1.009,3.724,3.724,0,0,0,2.9-1.7h1.318a5.911,5.911,0,0,1-1.423,1.629,5.281,5.281,0,0,1-3.266,1.192,2.183,2.183,0,0,1-2.267-1.3,4.733,4.733,0,0,1,.5-3.051,8.415,8.415,0,0,1,2.339-3.113,5.175,5.175,0,0,1,3.508-1.208,2.025,2.025,0,0,1,1.9,1.154c.364,1.177-.034,2.142-.659,3.624h-5.907m4.984-1.138a2.724,2.724,0,0,0,.235-1.872c0-.36-.479-.656-1.076-.711a2.852,2.852,0,0,0-2.089.711,6.32,6.32,0,0,0-1.525,1.872Z" transform="translate(-7.592 -111.618)" fill="#a6a7a7"/>
      <path id="Path_466" data-name="Path 466" d="M182.951,143.991h1.294l-.547,1.267a4.559,4.559,0,0,1,2.5-1.49h.734l-.6,1.35a4.124,4.124,0,0,0-1.293.186,4.216,4.216,0,0,0-2.473,2.577l-1.85,4.206h-1.29l3.524-8.1" transform="translate(-5.111 -111.614)" fill="#a6a7a7"/>
    </g>
    <g id="Group_238" data-name="Group 238" transform="translate(66.421)">
      <path id="Path_467" data-name="Path 467" d="M111.061,119.889A3.715,3.715,0,1,1,106,118.532,3.7,3.7,0,0,1,111.061,119.889Z" transform="translate(-104.135 -110.614)" fill="#004b9e"/>
      <path id="Path_468" data-name="Path 468" d="M116.622,114.351a2.987,2.987,0,1,1-4.083-1.089A3.009,3.009,0,0,1,116.622,114.351Z" transform="translate(-101.141 -112.858)" fill="#008132"/>
    </g>
  </g>
</svg>
